<?xml version="1.0" encoding="utf-8"?>
<!-- Generator: Adobe Illustrator 16.0.0, SVG Export Plug-In . SVG Version: 6.00 Build 0)  -->
<!DOCTYPE svg PUBLIC "-//W3C//DTD SVG 1.1//EN" "http://www.w3.org/Graphics/SVG/1.1/DTD/svg11.dtd">
<svg version="1.1" id="Слой_1" xmlns="http://www.w3.org/2000/svg" xmlns:xlink="http://www.w3.org/1999/xlink" x="0px" y="0px"
	 width="396.85px" height="79.37px" viewBox="0 0 396.85 79.37" enable-background="new 0 0 396.85 79.37" xml:space="preserve">
<g id="layer1" inkscape:label="Layer 1" inkscape:groupmode="layer">
	<path id="path3699" inkscape:connector-curvature="0" fill="#4A538A" d="M109.255,35.589h7.776V14.057l9.43,13.124h1.118
		l9.479-13.27V35.59h7.777V1.565h-7.339l-9.916,14.339l-10.5-14.339h-7.825V35.589z M92.312,0.304h-4.531v77.588h4.531V0.304z
		 M58.482,12.706l-25.446,7.183c-0.403,0.119-0.683,0.484-0.689,0.905v4.426H9.948v-8.012c-0.002-2.547,1.805-4.735,4.308-5.212
		l42.406-7.71c1.273-0.232,2.497,0.596,2.757,1.863l0.765,3.737C60.459,11.128,59.711,12.369,58.482,12.706L58.482,12.706z
		 M67.959,54.122c0,0.595-0.482,1.077-1.077,1.077h-7.947c-0.595,0-1.077-0.482-1.077-1.077v-2.014h10.101V54.122z M69.886,49.954
		c0.595,0,1.077-0.481,1.077-1.077v-8.27c-0.006-2.448-1.989-4.43-4.437-4.437H33.229c-0.488,0-0.883-0.395-0.883-0.883v-7.915
		H9.948v29.893h22.334V53.82l23.12-6.989v2.047c0,0.595,0.482,1.077,1.077,1.077L69.886,49.954L69.886,49.954z M72.094,69.295
		c0.366,0,0.707,0.188,0.905,0.494c0.667,1.078,2.81,4.523,2.81,6.172c-0.11,2.049-1.861,3.619-3.91,3.51
		c-1.895-0.102-3.407-1.615-3.51-3.51c0-1.647,2.154-5.137,2.799-6.16C71.384,69.488,71.726,69.297,72.094,69.295z M63.813,60.077
		c0.657,1.022,2.811,4.512,2.811,6.159c-0.11,2.049-1.861,3.621-3.91,3.51c-1.895-0.102-3.407-1.615-3.51-3.51
		c0-1.647,2.154-5.137,2.8-6.159c0.322-0.501,0.989-0.644,1.489-0.321C63.621,59.84,63.729,59.949,63.813,60.077z M54.508,69.801
		c0.657,1.023,2.8,4.513,2.8,6.16c-0.11,2.049-1.861,3.62-3.91,3.51c-1.895-0.102-3.408-1.615-3.51-3.51
		c0-1.647,2.154-5.137,2.8-6.16c0.318-0.502,0.983-0.652,1.486-0.334C54.31,69.553,54.424,69.666,54.508,69.801z M1.086,74.281
		L6.47,60.917c0.364-0.922,1.259-1.525,2.25-1.519H33.08c0.991-0.008,1.886,0.597,2.25,1.519l5.374,13.364
		c0.5,1.241-0.102,2.652-1.343,3.152c-0.286,0.113-0.589,0.174-0.897,0.175H3.325c-1.339-0.006-2.419-1.093-2.415-2.431
		C0.911,74.87,0.97,74.566,1.086,74.281L1.086,74.281z M149.695,35.589h7.826l2.819-7.145h13.464l2.819,7.145h8.312L170.791,1.565
		h-6.951L149.695,35.589z M167.096,11.529l3.791,9.624h-7.631L167.096,11.529z M202.628,23.487h7.242v3.694
		c-0.778,0.729-3.306,1.702-5.347,1.702c-6.077,0-10.062-4.034-10.062-10.305c0-7,4.326-10.305,9.916-10.305
		c2.625,0,5.591,1.069,6.951,2.527l3.258-6.27c-2.771-2.188-6.076-3.548-11.131-3.548c-10.694,0-17.256,7.826-17.256,17.595
		c0,10.596,6.562,17.596,18.228,17.596c4.229,0,9.722-1.798,12.734-4.813V16.194h-14.533V23.487z M220.077,35.589h7.826l2.819-7.145
		h13.464l2.819,7.145h8.312L241.174,1.565h-6.951L220.077,35.589z M237.479,11.529l3.791,9.624h-7.631L237.479,11.529z
		 M257.845,8.856h15.846l-16.818,21.29v5.444h27.707v-7.292h-17.353l16.866-21.289V1.564h-26.248V8.856z M291.869,35.589h7.776
		V1.565h-7.776V35.589z M339.017,35.589V1.565h-7.29v20.513L315.589,1.565h-6.223v34.024h7.292V15.175l16.138,20.415H339.017z
		 M121.746,68.527c0,1.605-1.167,2.625-3.208,2.625c-2.382,0-5.347-1.117-7.291-3.596l-4.424,5.297
		c1.653,3.646,6.951,5.59,11.52,5.59c6.562,0,11.666-4.082,11.666-10.013c0-11.082-14.193-9.722-14.193-15.36
		c0-1.555,1.264-2.527,3.403-2.527c2.527,0,3.646,0.875,5.152,2.285l4.181-5.832c-2.139-2.285-5.639-3.743-10.013-3.743
		c-6.805,0-10.985,4.569-10.985,9.818C107.553,64.057,121.746,63.424,121.746,68.527L121.746,68.527z M136.814,77.86h7.778V56.328
		l9.43,13.123h1.118l9.479-13.27V77.86h7.777V43.836h-7.34l-9.917,14.339L144.64,43.836h-7.826V77.86z M181.63,77.86h20.657v-7.291
		h-12.881v-6.173h10.937v-7.291h-10.937v-5.979h12.395v-7.292h-20.172L181.63,77.86L181.63,77.86z M222.557,68.527
		c0,1.605-1.167,2.625-3.208,2.625c-2.382,0-5.347-1.117-7.29-3.596l-4.424,5.297c1.652,3.646,6.951,5.59,11.519,5.59
		c6.563,0,11.666-4.082,11.666-10.013c0-11.082-14.193-9.722-14.193-15.36c0-1.555,1.265-2.527,3.402-2.527
		c2.528,0,3.646,0.875,5.153,2.285l4.18-5.832c-2.14-2.285-5.639-3.743-10.014-3.743c-6.805,0-10.984,4.569-10.984,9.818
		C208.363,64.057,222.557,63.424,222.557,68.527L222.557,68.527z M238.11,77.86h7.777V43.836h-7.777V77.86z M251.72,51.127h10.208
		v26.734h7.776V51.127h10.207v-7.291H251.72V51.127L251.72,51.127z M285.259,77.86h20.657v-7.291h-12.88v-6.173h10.936v-7.291
		h-10.936v-5.979h12.394v-7.292h-20.172L285.259,77.86L285.259,77.86z M313.694,77.86h21.63v-7.291h-13.854V43.835h-7.776V77.86z
		 M340.67,77.86h20.658v-7.291h-12.881v-6.173h10.937v-7.291h-10.937v-5.979h12.395v-7.292h-20.173L340.67,77.86L340.67,77.86z
		 M396.519,43.836h-8.409l-7.193,12.881l-7.292-12.881h-8.894l11.957,20.172v13.854h7.776V64.008L396.519,43.836z"/>
</g>
</svg>
