<svg width="45" height="45" viewBox="0 0 21 21" fill="none" xmlns="http://www.w3.org/2000/svg">
<path d="M9.68176 11.0332C9.49453 10.9106 9.24327 10.9629 9.12058 11.1502L8.69894 11.7937C8.63818 11.8865 8.54995 11.9108 8.5028 11.9171C8.45564 11.9233 8.36404 11.9229 8.28121 11.8492C7.53016 11.1816 6.48514 11.0015 5.55394 11.379L5.16386 11.5371C4.95642 11.6212 4.85639 11.8576 4.94052 12.0651C5.01163 12.2404 5.19151 12.3385 5.37072 12.314C5.48665 12.776 5.76323 13.1832 6.16051 13.4629C6.50307 13.7041 6.90458 13.8292 7.31262 13.8292C7.49435 13.8292 7.67739 13.8044 7.857 13.754L8.53333 13.5641C8.71439 13.5133 8.83671 13.3446 8.82878 13.1567L8.80843 12.6747C9.04001 12.598 9.24115 12.4455 9.37708 12.238L9.79872 11.5945C9.92136 11.4072 9.86902 11.1559 9.68176 11.0332ZM7.63784 12.9734C7.29047 13.0709 6.9221 13.0077 6.62715 12.8C6.36971 12.6188 6.19712 12.3477 6.14051 12.0424C6.70556 11.9133 7.29844 12.0604 7.74256 12.4552C7.81921 12.5233 7.90429 12.5794 7.99477 12.6228L8.00522 12.8703L7.63784 12.9734Z" fill="#5BF3CF"/>
<path d="M9.03083 9.51991C9.05403 9.52388 9.07704 9.52581 9.09979 9.52581C9.29358 9.52581 9.46495 9.38638 9.49882 9.18888L9.76905 7.61256C9.80688 7.39191 9.65866 7.18235 9.43802 7.14457C9.21729 7.10673 9.00786 7.25495 8.97003 7.4756L8.6998 9.05192C8.66197 9.27256 8.81019 9.48208 9.03083 9.51991Z" fill="#5BF3CF"/>
<path d="M19.6951 0.979946C18.8428 0.607257 17.8784 0.801866 17.2383 1.47577L13.6897 5.21217C13.4646 5.44925 13.2935 5.72501 13.1811 6.03168L13.0028 6.51755C11.3747 6.03078 9.62533 6.03078 7.99711 6.51755L7.81881 6.03181C7.70635 5.72501 7.53525 5.44925 7.31015 5.21208L3.7616 1.47572C3.12152 0.801866 2.15717 0.607167 1.30478 0.979946C0.45514 1.35146 -0.0551855 2.18868 0.00476008 3.11304C0.115103 4.80646 0.381773 6.37662 0.797249 7.78001C1.3173 9.53644 2.07268 11.0288 3.04203 12.2194C2.97502 12.4659 2.97195 12.729 3.03906 12.9806L3.17206 13.4793C3.83155 15.9523 5.51574 18.0408 7.79282 19.2093C7.79413 19.21 7.79548 19.2104 7.79678 19.2111C7.96144 19.3046 8.14092 19.3769 8.33287 19.4237C8.4184 19.4445 8.50402 19.4597 8.58945 19.4696C9.11347 19.9462 9.78589 20.207 10.5 20.207C11.2143 20.207 11.8868 19.946 12.4109 19.4693C12.4962 19.4593 12.5817 19.4444 12.6671 19.4236C12.8606 19.3765 13.0414 19.3033 13.2072 19.2087C13.2072 19.2088 13.2072 19.2093 13.2072 19.2093C15.4843 18.0407 17.1685 15.9522 17.8279 13.4793L17.9609 12.9806C18.028 12.729 18.025 12.4658 17.9579 12.2194C18.9273 11.0288 19.6827 9.53644 20.2027 7.77996C20.6182 6.37662 20.8849 4.80642 20.9952 3.11286C21.0552 2.18868 20.5448 1.35146 19.6951 0.979946ZM1.6296 1.72276C2.05606 1.53626 2.68574 1.52013 3.17386 2.03406L6.72236 5.77032C6.87076 5.92665 6.98358 6.10851 7.0578 6.311L7.24885 6.83155C7.12419 6.91857 7.01182 7.0231 6.91643 7.14335L6.26283 7.96746C6.24572 6.886 5.99887 6.22786 5.77395 5.85081C5.62919 5.60819 5.28375 5.59112 5.11229 5.81563C5.10991 5.81878 5.10752 5.82189 5.10513 5.82504C5.00699 5.95354 4.99411 6.12918 5.07635 6.2684C5.27835 6.61046 5.58249 7.42403 5.39311 9.06418L3.48444 11.4707C1.57465 8.96099 0.975194 5.53838 0.813687 3.06043C0.768154 2.35712 1.20529 1.90827 1.6296 1.72276ZM9.75697 19.2564C9.9614 19.1498 10.1503 19.0074 10.3152 18.8306L10.3358 18.8085C10.3948 18.7452 10.4496 18.6788 10.5 18.6096C10.5504 18.6788 10.6052 18.7452 10.6642 18.8085L10.6847 18.8305C10.8496 19.0074 11.0386 19.1498 11.243 19.2564C11.0095 19.3479 10.7587 19.3963 10.5 19.3963C10.2413 19.3963 9.99045 19.3479 9.75697 19.2564ZM11.4894 15.786C11.3617 15.827 11.2987 15.8552 11.2603 15.8743C10.9618 16.0229 10.7028 16.2359 10.5 16.4936C10.2972 16.2359 10.0382 16.0228 9.73968 15.8743C9.70131 15.8552 9.63825 15.827 9.51061 15.786H11.4894ZM17.1776 12.7717L17.0446 13.2704C16.589 14.9791 15.5956 16.4859 14.2372 17.5783C14.2682 17.3456 14.2714 17.1107 14.2474 16.8786C14.9839 15.683 16.0914 15.0674 16.1029 15.0611C16.2991 14.9542 16.3719 14.7086 16.2654 14.512C16.1587 14.3152 15.9126 14.2421 15.7159 14.3488C15.6696 14.3738 14.7596 14.8756 13.9637 15.8758C13.6755 15.1707 13.6081 14.3797 13.6064 14.3586C13.5892 14.1354 13.394 13.9685 13.1711 13.9857C12.9479 14.003 12.7809 14.1979 12.7982 14.4211C12.8014 14.4625 12.8809 15.4449 13.2679 16.3108C13.4711 16.7655 13.5086 17.2827 13.3735 17.7669C13.2516 18.2037 12.9158 18.5286 12.4752 18.636C12.0347 18.7434 11.587 18.6095 11.2777 18.2777L11.2572 18.2557C11.0437 18.0267 10.9205 17.7322 10.9067 17.421C11.0265 17.0651 11.2842 16.7679 11.6215 16.6001C11.6237 16.599 11.6764 16.5732 11.8648 16.5194C12.2015 16.4233 12.4366 16.112 12.4366 15.7624C12.4366 15.4652 12.271 15.2061 12.0272 15.0722L11.763 12.7232C11.738 12.5007 11.5371 12.3407 11.3149 12.3656C11.0925 12.3907 10.9324 12.5913 10.9574 12.8138L11.2006 14.9753H9.7994L10.0426 12.8138C10.0676 12.5913 9.90753 12.3907 9.68505 12.3656C9.46265 12.3407 9.26196 12.5007 9.23696 12.7232L8.97273 15.0722C8.72898 15.2061 8.56337 15.4652 8.56337 15.7624C8.56337 16.112 8.79852 16.4233 9.13518 16.5194C9.32357 16.5732 9.37631 16.599 9.37847 16.6001C9.71576 16.7679 9.97347 17.0651 10.0933 17.421C10.0795 17.7322 9.95631 18.0266 9.74288 18.2556L9.72229 18.2777C9.41306 18.6094 8.96538 18.7433 8.52482 18.6359C8.08422 18.5285 7.74841 18.2036 7.62654 17.7668C7.49138 17.2826 7.5289 16.7655 7.73211 16.3107C8.11907 15.4448 8.19866 14.4624 8.20186 14.421C8.2191 14.1978 8.05215 14.0029 7.82894 13.9857C7.60591 13.9684 7.41081 14.1354 7.39356 14.3586C7.39293 14.3669 7.32848 15.1613 7.03627 15.8757C6.24036 14.8755 5.33023 14.3737 5.28402 14.3487C5.08757 14.2422 4.84216 14.3151 4.73524 14.5114C4.62832 14.7077 4.70087 14.9537 4.89697 15.061C4.90841 15.0673 6.01594 15.683 6.7524 16.8786C6.72844 17.1107 6.73164 17.3456 6.76271 17.5783C5.40428 16.4858 4.41092 14.9791 3.95527 13.2703L3.82227 12.7716C3.76949 12.5736 3.81394 12.3596 3.94131 12.199L7.55151 7.64706C7.6378 7.53824 7.75206 7.45515 7.88204 7.4066C8.59751 7.15574 9.3437 7.01161 10.0946 6.97338V9.97606C10.0946 10.1999 10.276 10.3814 10.4999 10.3814C10.7238 10.3814 10.9053 10.1999 10.9053 9.97606V6.97338C11.6561 7.01161 12.4023 7.15574 13.1178 7.40655C13.2478 7.4551 13.362 7.53824 13.4483 7.64701L17.0585 12.199C17.1859 12.3596 17.2304 12.5737 17.1776 12.7717ZM20.1863 3.0603C19.9029 7.40966 18.6293 10.0042 17.516 11.4712L15.607 9.06413C15.4194 7.43966 15.7159 6.62604 15.9179 6.27831C16.0027 6.13234 15.9902 5.94971 15.8877 5.81554C15.7162 5.59103 15.3708 5.60814 15.2261 5.85076C15.0012 6.22782 14.7543 6.88596 14.7372 7.96741L14.0836 7.14331C13.9882 7.02305 13.8759 6.91857 13.7513 6.83155L13.9424 6.31078C14.0165 6.10847 14.1294 5.92665 14.2777 5.77037L17.8262 2.03402C18.3143 1.52004 18.944 1.53626 19.3705 1.72271C19.7947 1.90827 20.2318 2.35712 20.1863 3.0603Z" fill="#5BF3CF"/>
<path d="M15.8362 11.5371L15.4461 11.379C14.5149 11.0015 13.4699 11.1816 12.7188 11.8492C12.6359 11.9229 12.5444 11.9234 12.4972 11.9171C12.4501 11.9109 12.3618 11.8865 12.3011 11.7937L11.8794 11.1502C11.7568 10.9629 11.5055 10.9106 11.3183 11.0332C11.131 11.1559 11.0787 11.4071 11.2013 11.5944L11.623 12.238C11.759 12.4455 11.9601 12.598 12.1916 12.6746L12.1713 13.1567C12.1634 13.3445 12.2857 13.5132 12.4667 13.5641L13.1431 13.7539C13.3228 13.8044 13.5058 13.8292 13.6875 13.8292C14.0955 13.8292 14.4971 13.7041 14.8396 13.4629C15.2369 13.1831 15.5135 12.776 15.6294 12.314C15.8086 12.3385 15.9885 12.2404 16.0596 12.0651C16.1436 11.8576 16.0436 11.6212 15.8362 11.5371ZM14.3728 12.8C14.0778 13.0077 13.7095 13.0709 13.3622 12.9734L12.9948 12.8703L13.0052 12.6228C13.0957 12.5793 13.1808 12.5233 13.2574 12.4551C13.7015 12.0603 14.2944 11.9132 14.8595 12.0424C14.8029 12.3477 14.6303 12.6187 14.3728 12.8Z" fill="#5BF3CF"/>
<path d="M11.5012 9.18888C11.535 9.38638 11.7064 9.52581 11.9002 9.52581C11.9229 9.52581 11.946 9.52388 11.9691 9.51991C12.1898 9.48208 12.338 9.27256 12.3002 9.05192L12.0299 7.4756C11.9921 7.25495 11.7823 7.10673 11.562 7.14457C11.3413 7.1824 11.1931 7.39191 11.2309 7.61256L11.5012 9.18888Z" fill="#5BF3CF"/>
</svg>
