<svg width="1107" height="580" viewBox="0 0 1107 580" fill="none" xmlns="http://www.w3.org/2000/svg">
<path opacity="0.3" d="M1100.6 85.3875C1111.14 113.504 1105.91 146.04 1087.37 180.827C1068.83 215.614 1037 252.625 994.386 289.662C909.158 363.734 780.839 437.877 629.629 494.521C478.42 551.165 332.971 579.579 220.052 579.734C163.592 579.811 115.279 572.823 78.4488 558.777C41.6181 544.731 16.2993 523.639 5.76666 495.523C-4.76601 467.406 0.463235 434.871 19.0005 400.083C37.5375 365.296 69.3686 328.286 111.983 291.249C197.211 217.176 325.53 143.034 476.74 86.3894C627.949 29.745 773.398 1.33132 886.317 1.17659C942.777 1.0992 991.09 8.08688 1027.92 22.1328C1064.75 36.1789 1090.07 57.2711 1100.6 85.3875Z" stroke="white" stroke-width="0.5"/>
</svg>
