<svg width="93" height="102" viewBox="0 0 93 102" fill="none" xmlns="http://www.w3.org/2000/svg">
<path d="M5.68 17.08L0.36 0.999998H5.04L8.04 11.28H8.12L11.12 0.999998H15.4L10.08 17.08V29H5.68V17.08ZM23.0391 29.4C20.8791 29.4 19.2257 28.7867 18.0791 27.56C16.9324 26.3333 16.3591 24.6 16.3591 22.36V7.64C16.3591 5.4 16.9324 3.66667 18.0791 2.44C19.2257 1.21333 20.8791 0.599998 23.0391 0.599998C25.1991 0.599998 26.8524 1.21333 27.9991 2.44C29.1457 3.66667 29.7191 5.4 29.7191 7.64V22.36C29.7191 24.6 29.1457 26.3333 27.9991 27.56C26.8524 28.7867 25.1991 29.4 23.0391 29.4ZM23.0391 25.4C24.5591 25.4 25.3191 24.48 25.3191 22.64V7.36C25.3191 5.52 24.5591 4.6 23.0391 4.6C21.5191 4.6 20.7591 5.52 20.7591 7.36V22.64C20.7591 24.48 21.5191 25.4 23.0391 25.4ZM39.0947 29.4C36.9614 29.4 35.3347 28.8 34.2147 27.6C33.0947 26.3733 32.5347 24.6267 32.5347 22.36V0.999998H36.9347V22.68C36.9347 23.64 37.1214 24.3333 37.4947 24.76C37.8947 25.1867 38.4547 25.4 39.1747 25.4C39.8947 25.4 40.4414 25.1867 40.8147 24.76C41.2147 24.3333 41.4147 23.64 41.4147 22.68V0.999998H45.6547V22.36C45.6547 24.6267 45.0947 26.3733 43.9747 27.6C42.8547 28.8 41.228 29.4 39.0947 29.4ZM48.7884 0.999998H55.3084C57.5751 0.999998 59.2284 1.53333 60.2684 2.6C61.3084 3.64 61.8284 5.25333 61.8284 7.44V9.16C61.8284 12.0667 60.8684 13.9067 58.9484 14.68V14.76C60.0151 15.08 60.7618 15.7333 61.1884 16.72C61.6418 17.7067 61.8684 19.0267 61.8684 20.68V25.6C61.8684 26.4 61.8951 27.0533 61.9484 27.56C62.0018 28.04 62.1351 28.52 62.3484 29H57.8684C57.7084 28.5467 57.6018 28.12 57.5484 27.72C57.4951 27.32 57.4684 26.6 57.4684 25.56V20.44C57.4684 19.16 57.2551 18.2667 56.8284 17.76C56.4284 17.2533 55.7218 17 54.7084 17H53.1884V29H48.7884V0.999998ZM54.7884 13C55.6684 13 56.3218 12.7733 56.7484 12.32C57.2018 11.8667 57.4284 11.1067 57.4284 10.04V7.88C57.4284 6.86667 57.2418 6.13333 56.8684 5.68C56.5218 5.22667 55.9618 5 55.1884 5H53.1884V13H54.7884ZM5.08 41H0.48V37H14.08V41H9.48V65H5.08V41ZM16.2103 37H28.2103V41H20.6103V48.4H26.6503V52.4H20.6103V61H28.2103V65H16.2103V37ZM30.7416 37H36.2616L40.5416 53.76H40.6216V37H44.5416V65H40.0216L34.7416 44.56H34.6616V65H30.7416V37ZM47.8119 37H54.5319C56.7185 37 58.3585 37.5867 59.4519 38.76C60.5452 39.9333 61.0919 41.6533 61.0919 43.92V58.08C61.0919 60.3467 60.5452 62.0667 59.4519 63.24C58.3585 64.4133 56.7185 65 54.5319 65H47.8119V37ZM54.4519 61C55.1719 61 55.7185 60.7867 56.0919 60.36C56.4919 59.9333 56.6919 59.24 56.6919 58.28V43.72C56.6919 42.76 56.4919 42.0667 56.0919 41.64C55.7185 41.2133 55.1719 41 54.4519 41H52.2119V61H54.4519ZM64.0619 37H76.0619V41H68.4619V48.4H74.5019V52.4H68.4619V61H76.0619V65H64.0619V37ZM78.5931 37H85.1131C87.3798 37 89.0331 37.5333 90.0731 38.6C91.1131 39.64 91.6331 41.2533 91.6331 43.44V45.16C91.6331 48.0667 90.6731 49.9067 88.7531 50.68V50.76C89.8198 51.08 90.5665 51.7333 90.9931 52.72C91.4465 53.7067 91.6731 55.0267 91.6731 56.68V61.6C91.6731 62.4 91.6998 63.0533 91.7531 63.56C91.8065 64.04 91.9398 64.52 92.1531 65H87.6731C87.5131 64.5467 87.4065 64.12 87.3531 63.72C87.2998 63.32 87.2731 62.6 87.2731 61.56V56.44C87.2731 55.16 87.0598 54.2667 86.6331 53.76C86.2331 53.2533 85.5265 53 84.5131 53H82.9931V65H78.5931V37ZM84.5931 49C85.4731 49 86.1265 48.7733 86.5531 48.32C87.0065 47.8667 87.2331 47.1067 87.2331 46.04V43.88C87.2331 42.8667 87.0465 42.1333 86.6731 41.68C86.3265 41.2267 85.7665 41 84.9931 41H82.9931V49H84.5931Z" fill="black"/>
<path d="M1.64 73H8.12C10.3067 73 11.9467 73.5867 13.04 74.76C14.1333 75.9333 14.68 77.6533 14.68 79.92V82.68C14.68 84.9467 14.1333 86.6667 13.04 87.84C11.9467 89.0133 10.3067 89.6 8.12 89.6H6.04V101H1.64V73ZM8.12 85.6C8.84 85.6 9.37333 85.4 9.72 85C10.0933 84.6 10.28 83.92 10.28 82.96V79.64C10.28 78.68 10.0933 78 9.72 77.6C9.37333 77.2 8.84 77 8.12 77H6.04V85.6H8.12ZM17.0697 73H23.5897C25.8564 73 27.5097 73.5333 28.5497 74.6C29.5897 75.64 30.1097 77.2533 30.1097 79.44V81.16C30.1097 84.0667 29.1497 85.9067 27.2297 86.68V86.76C28.2964 87.08 29.043 87.7333 29.4697 88.72C29.923 89.7067 30.1497 91.0267 30.1497 92.68V97.6C30.1497 98.4 30.1764 99.0533 30.2297 99.56C30.283 100.04 30.4164 100.52 30.6297 101H26.1497C25.9897 100.547 25.883 100.12 25.8297 99.72C25.7764 99.32 25.7497 98.6 25.7497 97.56V92.44C25.7497 91.16 25.5364 90.2667 25.1097 89.76C24.7097 89.2533 24.003 89 22.9897 89H21.4697V101H17.0697V73ZM23.0697 85C23.9497 85 24.603 84.7733 25.0297 84.32C25.483 83.8667 25.7097 83.1067 25.7097 82.04V79.88C25.7097 78.8667 25.523 78.1333 25.1497 77.68C24.803 77.2267 24.243 77 23.4697 77H21.4697V85H23.0697ZM39.5625 101.4C37.4025 101.4 35.7492 100.787 34.6025 99.56C33.4558 98.3333 32.8825 96.6 32.8825 94.36V79.64C32.8825 77.4 33.4558 75.6667 34.6025 74.44C35.7492 73.2133 37.4025 72.6 39.5625 72.6C41.7225 72.6 43.3758 73.2133 44.5225 74.44C45.6692 75.6667 46.2425 77.4 46.2425 79.64V94.36C46.2425 96.6 45.6692 98.3333 44.5225 99.56C43.3758 100.787 41.7225 101.4 39.5625 101.4ZM39.5625 97.4C41.0825 97.4 41.8425 96.48 41.8425 94.64V79.36C41.8425 77.52 41.0825 76.6 39.5625 76.6C38.0425 76.6 37.2825 77.52 37.2825 79.36V94.64C37.2825 96.48 38.0425 97.4 39.5625 97.4Z" fill="#98CBED"/>
</svg>
