<svg width="21" height="21" viewBox="0 0 21 21" fill="none" xmlns="http://www.w3.org/2000/svg">
<path fill-rule="evenodd" clip-rule="evenodd" d="M9.34267 11.0497L17.7157 2.67664C17.9612 2.43115 18.3572 2.43084 18.6013 2.67491C18.8471 2.92069 18.8453 3.31475 18.6012 3.55887L9.78469 12.3754C9.53644 12.6236 9.1448 12.6196 8.90073 12.3755C8.89899 12.3737 8.89727 12.372 8.89556 12.3703C8.89383 12.3686 8.8921 12.3668 8.89037 12.3651L6.6908 10.1655C6.44662 9.92137 6.44694 9.52596 6.69102 9.28188C6.9368 9.03611 7.33072 9.03771 7.57468 9.28166L9.34267 11.0497Z" fill="#2A2630"/>
<path d="M8.43712 0.124446C2.98227 0.98841 -0.739385 6.11082 0.124579 11.5657C0.988543 17.0205 6.11096 20.7422 11.5658 19.8782C16.044 19.1689 19.4515 15.5479 19.9426 11.106C20.0401 10.2245 20.0196 9.32891 19.8783 8.43699C19.8243 8.09606 19.5042 7.86345 19.1633 7.91745C18.8223 7.97145 18.5897 8.2916 18.6437 8.63253C18.7675 9.41407 18.7854 10.1977 18.7002 10.9686C18.2706 14.8542 15.2886 18.023 11.3703 18.6436C6.59727 19.3996 2.11516 16.1431 1.35919 11.3701C0.603221 6.59713 3.85966 2.11503 8.63266 1.35906C10.3897 1.08077 12.1499 1.3399 13.7241 2.08168C14.0363 2.22882 14.4087 2.09498 14.5559 1.78273C14.703 1.47048 14.5692 1.09808 14.2569 0.950938C12.4576 0.103074 10.4439 -0.193389 8.43712 0.124446Z" fill="#FCFCFE"/>
</svg>
