<svg width="9" height="19" viewBox="0 0 9 19" fill="none" xmlns="http://www.w3.org/2000/svg">
<path d="M6.1 11.575C5.83333 11.9083 5.54167 12.2083 5.225 12.475C4.90833 12.7417 4.55833 12.875 4.175 12.875C3.975 12.875 3.76667 12.7833 3.55 12.6C3.35 12.4 3.25 12.1333 3.25 11.8C3.25 11.35 3.375 10.9167 3.625 10.5C3.89167 10.0833 4.21667 9.675 4.6 9.275C4.98333 8.85833 5.4 8.45 5.85 8.05C6.31667 7.63333 6.74167 7.2 7.125 6.75C7.50833 6.3 7.825 5.825 8.075 5.325C8.34167 4.80833 8.475 4.25833 8.475 3.675C8.475 3.25833 8.40833 2.84167 8.275 2.425C8.15833 2.00833 7.94167 1.64167 7.625 1.325C7.325 0.991666 6.90833 0.724999 6.375 0.524998C5.84167 0.308333 5.16667 0.2 4.35 0.2C3.71667 0.2 3.15833 0.283333 2.675 0.449999C2.20833 0.6 1.80833 0.816666 1.475 1.1C1.15833 1.38333 0.916667 1.71667 0.75 2.1C0.6 2.48333 0.516667 2.89167 0.5 3.325H2.25V3.175C2.25 2.875 2.30833 2.6 2.425 2.35C2.55833 2.08333 2.73333 1.85833 2.95 1.675C3.16667 1.49167 3.40833 1.35 3.675 1.25C3.94167 1.15 4.21667 1.1 4.5 1.1C4.76667 1.1 5.03333 1.15 5.3 1.25C5.58333 1.35 5.83333 1.49167 6.05 1.675C6.28333 1.84167 6.46667 2.05 6.6 2.3C6.73333 2.53333 6.8 2.8 6.8 3.1C6.8 3.61667 6.675 4.09167 6.425 4.525C6.19167 4.94167 5.89167 5.34167 5.525 5.725C5.175 6.10833 4.79167 6.49167 4.375 6.875C3.95833 7.24167 3.55833 7.625 3.175 8.025C2.80833 8.425 2.49167 8.85 2.225 9.3C1.975 9.75 1.83333 10.2583 1.8 10.825V11.075C1.8 11.4583 1.85833 11.825 1.975 12.175C2.09167 12.5083 2.26667 12.8083 2.5 13.075C2.73333 13.325 3.025 13.525 3.375 13.675C3.725 13.825 4.14167 13.9 4.625 13.9C5.04167 13.9 5.49167 13.7667 5.975 13.5C6.475 13.2333 6.91667 12.8667 7.3 12.4L6.1 11.575ZM2.925 16.95C2.925 17.3167 3.05833 17.6333 3.325 17.9C3.59167 18.1667 3.90833 18.3 4.275 18.3C4.64167 18.3 4.95833 18.1667 5.225 17.9C5.49167 17.6333 5.625 17.3167 5.625 16.95C5.625 16.5833 5.49167 16.2667 5.225 16C4.95833 15.7333 4.64167 15.6 4.275 15.6C3.90833 15.6 3.59167 15.7333 3.325 16C3.05833 16.2667 2.925 16.5833 2.925 16.95Z" fill="white"/>
</svg>
