<svg width="774" height="406" viewBox="0 0 774 406" fill="none" xmlns="http://www.w3.org/2000/svg">
<path opacity="0.3" d="M769.635 59.8509C776.985 79.4709 773.339 102.183 760.391 126.481C747.443 150.779 725.207 176.635 695.433 202.513C635.884 254.267 546.225 306.072 440.567 345.653C334.91 385.233 233.28 405.086 154.385 405.194C114.936 405.248 81.1853 400.365 55.4603 390.555C29.7348 380.744 12.0642 366.017 4.71436 346.397C-2.63545 326.777 1.01011 304.065 13.958 279.766C26.9056 255.469 49.1417 229.613 78.9166 203.735C138.465 151.981 228.124 100.175 333.782 60.5951C439.44 21.0149 541.069 1.1621 619.964 1.05398C659.413 0.999909 693.164 5.88233 718.889 15.693C744.614 25.5039 762.285 40.231 769.635 59.8509Z" stroke="white" stroke-width="0.5"/>
</svg>
