<svg width="48" height="48" viewBox="0 0 52 52" fill="none" xmlns="http://www.w3.org/2000/svg">
<circle cx="26.0007" cy="26" r="24.9167" fill="#FCFCFE"/>
<path d="M26 0.8125C12.0851 0.8125 0.8125 12.0868 0.8125 26C0.8125 39.9132 12.0868 51.1875 26 51.1875C39.9149 51.1875 51.1875 39.9132 51.1875 26C51.1875 12.0868 39.9132 0.8125 26 0.8125ZM38.3711 18.0684L34.2371 37.5489C33.9316 38.9301 33.1094 39.2649 31.9621 38.6149L25.6652 33.9739L22.6281 36.8989C22.2934 37.2336 22.009 37.518 21.359 37.518L21.8059 31.109L33.475 20.566C33.9836 20.1191 33.3629 19.8656 32.6917 20.3125L18.2699 29.3914L12.0543 27.4511C10.7039 27.0254 10.673 26.1007 12.3386 25.4508L36.6226 16.0859C37.7504 15.6796 38.7351 16.3605 38.3695 18.0667L38.3711 18.0684Z" fill="url(#paint0_linear_433_50)"/>
<defs>
<linearGradient id="paint0_linear_433_50" x1="8.125" y1="8.66667" x2="42.25" y2="47.125" gradientUnits="userSpaceOnUse">
<stop stop-color="#32BCEF"/>
<stop offset="1" stop-color="#0E8BDB"/>
</linearGradient>
</defs>
</svg>
