<svg width="48" height="48" viewBox="0 0 52 52" fill="none" xmlns="http://www.w3.org/2000/svg">
<circle cx="26" cy="26" r="26" fill="#FCFCFE"/>
<path fill-rule="evenodd" clip-rule="evenodd" d="M0 26C0 11.6406 11.6406 0 26 0C40.3594 0 52 11.6406 52 26C52 40.3594 40.3594 52 26 52C11.6406 52 0 40.3594 0 26ZM27.3601 34.5324C27.3601 34.5324 27.8606 34.4778 28.1169 34.2076C28.3516 33.9599 28.3435 33.4926 28.3435 33.4926C28.3435 33.4926 28.3123 31.3103 29.3446 30.988C30.3619 30.6711 31.6681 33.0984 33.0545 34.0318C34.1016 34.7375 34.8964 34.583 34.8964 34.583L38.6009 34.5324C38.6009 34.5324 40.5379 34.4152 39.6196 32.92C39.5436 32.7975 39.0837 31.8136 36.8661 29.7923C34.5424 27.6767 34.8544 28.0188 37.6514 24.3586C39.3551 22.1297 40.036 20.7689 39.823 20.1872C39.621 19.6305 38.3675 19.7783 38.3675 19.7783L34.1979 19.8037C34.1979 19.8037 33.8886 19.7624 33.6594 19.8968C33.4356 20.0287 33.2904 20.3362 33.2904 20.3362C33.2904 20.3362 32.6312 22.0605 31.7509 23.5277C29.8939 26.6222 29.152 26.7859 28.8481 26.5942C28.1414 26.1455 28.3177 24.794 28.3177 23.834C28.3177 20.8342 28.7817 19.584 27.4157 19.2604C26.9627 19.1526 26.629 19.0819 25.4692 19.07C23.9812 19.0554 22.7224 19.0753 22.0089 19.4176C21.5342 19.6452 21.1679 20.1538 21.3917 20.1832C21.6671 20.219 22.2911 20.3483 22.6221 20.7903C23.0493 21.3615 23.0344 22.6423 23.0344 22.6423C23.0344 22.6423 23.28 26.1734 22.4606 26.6114C21.899 26.9124 21.1286 26.2986 19.4724 23.4905C18.6247 22.0526 17.9844 20.4628 17.9844 20.4628C17.9844 20.4628 17.8609 20.1658 17.6398 20.006C17.3727 19.813 16.9996 19.7531 16.9996 19.7531L13.0375 19.7783C13.0375 19.7783 12.442 19.7943 12.2236 20.0486C12.0297 20.2736 12.2086 20.741 12.2086 20.741C12.2086 20.741 15.3109 27.8657 18.824 31.4568C22.0455 34.7481 25.7025 34.5324 25.7025 34.5324H27.3601Z" fill="#1976D2"/>
</svg>
