<svg width="48" height="48" viewBox="0 0 64 64" fill="none" xmlns="http://www.w3.org/2000/svg">
<circle cx="32.0004" cy="32" r="25.6" fill="#FCFCFE"/>
<path d="M31.9993 6.29578C17.8119 6.29578 6.31055 17.8042 6.31055 31.9998C6.31055 46.1949 17.8119 57.7038 31.9993 57.7038C46.1871 57.7038 57.6889 46.1949 57.6889 31.9998C57.6889 17.8042 46.1871 6.29578 31.9993 6.29578ZM46.3839 37.7913C46.3839 39.7673 44.783 41.3691 42.8086 41.3691C42.8086 41.3691 39.7548 41.8136 31.8238 41.8136C23.8471 41.8136 21.0429 41.3691 21.0429 41.3691C19.0681 41.3691 17.4668 39.7673 17.4668 37.7913V25.9856C17.4668 24.01 19.0676 22.4078 21.0429 22.4078C21.0429 22.4078 23.8471 21.9633 31.815 21.9633C39.7548 21.9633 42.8086 22.4078 42.8086 22.4078C44.783 22.4078 46.3839 24.0096 46.3839 25.9856V37.7913Z" fill="#DF1D1D"/>
<path d="M27.5488 37.5541L37.3005 31.9208L27.5488 26.2875V37.5541Z" fill="#DF1D1D"/>
</svg>
