<svg width="1317" height="473" viewBox="0 0 1317 473" fill="none" xmlns="http://www.w3.org/2000/svg">
<g filter="url(#filter0_b_457_1430)">
<path d="M0.265371 6.19503C-0.380506 3.03293 2.09404 0.0963615 5.31987 0.196827L1312.16 40.8972C1314.86 40.9813 1317 43.1939 1317 45.8948V467.943C1317 470.727 1314.73 472.974 1311.94 472.943L96.8099 459.153C94.4556 459.126 92.439 457.46 91.9678 455.154L0.265371 6.19503Z" fill="url(#paint0_linear_457_1430)"/>
<path d="M0.265371 6.19503C-0.380506 3.03293 2.09404 0.0963615 5.31987 0.196827L1312.16 40.8972C1314.86 40.9813 1317 43.1939 1317 45.8948V467.943C1317 470.727 1314.73 472.974 1311.94 472.943L96.8099 459.153C94.4556 459.126 92.439 457.46 91.9678 455.154L0.265371 6.19503Z" fill="url(#paint1_radial_457_1430)" fill-opacity="0.2"/>
<path d="M1.73503 5.89484C1.28291 3.68137 3.0151 1.62577 5.27317 1.6961L1312.11 42.3965C1314 42.4553 1315.5 44.0042 1315.5 45.8948V467.943C1315.5 469.891 1313.91 471.465 1311.96 471.443L96.8269 457.653C95.1789 457.634 93.7673 456.468 93.4375 454.853L1.73503 5.89484Z" stroke="url(#paint2_linear_457_1430)" stroke-width="3"/>
</g>
<defs>
<filter id="filter0_b_457_1430" x="-39.8379" y="-39.8057" width="1396.84" height="552.749" filterUnits="userSpaceOnUse" color-interpolation-filters="sRGB">
<feFlood flood-opacity="0" result="BackgroundImageFix"/>
<feGaussianBlur in="BackgroundImage" stdDeviation="20"/>
<feComposite in2="SourceAlpha" operator="in" result="effect1_backgroundBlur_457_1430"/>
<feBlend mode="normal" in="SourceGraphic" in2="effect1_backgroundBlur_457_1430" result="shape"/>
</filter>
<linearGradient id="paint0_linear_457_1430" x1="-1" y1="0" x2="1317" y2="473" gradientUnits="userSpaceOnUse">
<stop stop-color="#98CBED" stop-opacity="0.7"/>
<stop offset="1" stop-color="#98CBED" stop-opacity="0.3"/>
</linearGradient>
<radialGradient id="paint1_radial_457_1430" cx="0" cy="0" r="1" gradientUnits="userSpaceOnUse" gradientTransform="translate(426.5 154) rotate(21.1768) scale(664.365 1851.23)">
<stop stop-color="white"/>
<stop offset="1" stop-color="white" stop-opacity="0.2"/>
</radialGradient>
<linearGradient id="paint2_linear_457_1430" x1="-1" y1="0" x2="1317" y2="473" gradientUnits="userSpaceOnUse">
<stop stop-color="#98CBED" stop-opacity="0.7"/>
<stop offset="1" stop-color="#98CBED" stop-opacity="0.25"/>
</linearGradient>
</defs>
</svg>
