<svg height="50" fill="#ffd100" viewBox="0 0 480 480" width="50" xmlns="http://www.w3.org/2000/svg"><path d="m472 48h-56v-24c0-13.253906-10.746094-24-24-24h-368c-13.253906 0-24 10.746094-24 24v80c0 13.253906 10.746094 24 24 24h8v56c0 13.253906 10.746094 24 24 24s24-10.746094 24-24c0-4.417969 3.582031-8 8-8s8 3.582031 8 8v32c0 13.253906 10.746094 24 24 24s24-10.746094 24-24v-48c0-4.417969 3.582031-8 8-8 13.253906 0 24-10.746094 24-24v-8h216c13.253906 0 24-10.746094 24-24v-8h16v59.28125l-210.230469 61.039062c-3.417969.992188-5.769531 4.121094-5.769531 7.679688v88h-24c-2.351562 0-4.585938 1.035156-6.105469 2.832031s-2.171875 4.167969-1.78125 6.488281l7.773438 46.679688-7.773438 46.679688c-.074219.4375-.113281.878906-.113281 1.320312v56c0 4.417969 3.582031 8 8 8h96c4.417969 0 8-3.582031 8-8v-56c0-.441406-.039062-.882812-.113281-1.320312l-7.773438-46.679688 7.773438-46.679688c.390625-2.320312-.261719-4.691406-1.78125-6.488281s-3.753907-2.832031-6.105469-2.832031h-24v-59.28125l210.230469-61.039062c3.417969-.992188 5.769531-4.121094 5.769531-7.679688v-128c0-4.417969-3.582031-8-8-8zm-312 88c0 4.417969-3.582031 8-8 8-13.253906 0-24 10.746094-24 24v48c0 4.417969-3.582031 8-8 8s-8-3.582031-8-8v-32c0-13.253906-10.746094-24-24-24s-24 10.746094-24 24c0 4.417969-3.582031 8-8 8s-8-3.582031-8-8v-56h112zm240-80v48c0 4.417969-3.582031 8-8 8h-368c-4.417969 0-8-3.582031-8-8v-80c0-4.417969 3.582031-8 8-8h368c4.417969 0 8 3.582031 8 8zm-121.449219 272-6.398437 38.679688c-.152344.875-.152344 1.765624 0 2.640624l7.847656 47.34375v47.335938h-80v-47.335938l7.886719-47.34375c.152343-.875.152343-1.765624 0-2.640624l-6.4375-38.679688zm185.449219-150.007812-210.230469 61.03125c-3.421875.992187-5.773437 4.128906-5.769531 7.6875v65.289062h-16v-81.992188l210.230469-61.03125c3.421875-.992187 5.773437-4.128906 5.769531-7.6875v-73.289062c0-4.417969-3.582031-8-8-8h-24v-16h48zm0 0"/></svg>