<svg width="30" height="30" viewBox="0 0 30 30" fill="none" xmlns="http://www.w3.org/2000/svg">
<path fill-rule="evenodd" clip-rule="evenodd" d="M10 7.5H7.5V6.25H5V10H25V6.25H22.5V7.5H20V6.25H10V7.5ZM25 12.5H5V25H25V12.5ZM20 3.75H10V2.5H7.5V3.75H5C3.61929 3.75 2.5 4.86929 2.5 6.25V25C2.5 26.3808 3.61929 27.5 5 27.5H25C26.3808 27.5 27.5 26.3808 27.5 25V6.25C27.5 4.86929 26.3808 3.75 25 3.75H22.5V2.5H20V3.75ZM8.75 17.5V15H11.25V17.5H8.75ZM13.75 17.5H16.25V15H13.75V17.5ZM18.75 17.5V15H21.25V17.5H18.75ZM8.75 20V22.5H11.25V20H8.75ZM16.25 22.5H13.75V20H16.25V22.5Z" fill="url(#paint0_linear_89269_50)"/>
<defs>
<linearGradient id="paint0_linear_89269_50" x1="2.5" y1="2.5" x2="28.7944" y2="3.94487" gradientUnits="userSpaceOnUse">
<stop stop-color="#00D2D8"/>
<stop offset="1" stop-color="#005CFF"/>
</linearGradient>
</defs>
</svg>
