<svg width="197" height="54" viewBox="0 0 197 54" fill="none" xmlns="http://www.w3.org/2000/svg">
<path fill-rule="evenodd" clip-rule="evenodd" d="M0 32.0315V21.0677C0 20.2936 0.0807757 20.013 0.232456 19.73C0.384136 19.447 0.60672 19.2249 0.890337 19.0736C1.17395 18.9222 1.45527 18.8416 2.23106 18.8416H13.2389C14.0147 18.8416 14.2961 18.9222 14.5797 19.0736C14.8633 19.2249 15.0859 19.447 15.2376 19.73C15.3892 20.013 15.47 20.2936 15.47 21.0677V32.0315C15.47 32.8055 15.3892 33.0862 15.2376 33.3692C15.0859 33.6522 14.8633 33.8742 14.5797 34.0256C14.2961 34.1769 14.0147 34.2575 13.2389 34.2575H2.23106C1.45527 34.2575 1.17395 34.1769 0.890337 34.0256C0.60672 33.8742 0.384136 33.6522 0.232456 33.3692C0.0807757 33.0862 0 32.8055 0 32.0315Z" fill="#005CFF"/>
<path fill-rule="evenodd" clip-rule="evenodd" d="M0 13.1898V2.22604C0 1.452 0.0807757 1.17131 0.232456 0.888336C0.384136 0.605357 0.60672 0.383271 0.890337 0.231933C1.17395 0.0805933 1.45527 0 2.23106 0H13.2389C14.0147 0 14.2961 0.0805933 14.5797 0.231933C14.8633 0.383271 15.0859 0.605357 15.2376 0.888336C15.3892 1.17131 15.47 1.452 15.47 2.22604V13.1898C15.47 13.9639 15.3892 14.2446 15.2376 14.5276C15.0859 14.8105 14.8633 15.0326 14.5797 15.184C14.2961 15.3353 14.0147 15.4159 13.2389 15.4159H2.23106C1.45527 15.4159 1.17395 15.3353 0.890337 15.184C0.60672 15.0326 0.384136 14.8105 0.232456 14.5276C0.0807757 14.2446 0 13.9639 0 13.1898Z" fill="#FFE700"/>
<path fill-rule="evenodd" clip-rule="evenodd" d="M18.9077 13.1898V2.22604C18.9077 1.452 18.9885 1.17131 19.1401 0.888336C19.2918 0.605357 19.5144 0.383271 19.798 0.231933C20.0816 0.0805933 20.363 0 21.1388 0H32.1466C32.9224 0 33.2037 0.0805933 33.4874 0.231933C33.771 0.383271 33.9936 0.605357 34.1452 0.888336C34.2969 1.17131 34.3777 1.452 34.3777 2.22604V13.1898C34.3777 13.9639 34.2969 14.2446 34.1452 14.5276C33.9936 14.8105 33.771 15.0326 33.4874 15.184C33.2037 15.3353 32.9224 15.4159 32.1466 15.4159H21.1388C20.363 15.4159 20.0816 15.3353 19.798 15.184C19.5144 15.0326 19.2918 14.8105 19.1401 14.5276C18.9885 14.2446 18.9077 13.9639 18.9077 13.1898Z" fill="#00DADA"/>
<path d="M26.3898 18.8422C27.9465 18.8422 29.2722 19.2067 30.3666 19.9356C31.4611 20.6645 32.2796 21.7006 32.8221 23.0441C33.3646 24.3875 33.5792 25.9834 33.466 27.8318H31.9942L22.0791 27.8323L22.0897 27.9602C22.2089 29.1942 22.5667 30.1828 23.163 30.926C23.9084 31.855 24.9839 32.3195 26.3898 32.3195C27.3144 32.3195 28.114 32.1075 28.7886 31.6835C29.4632 31.2595 29.9892 30.6521 30.3666 29.8613L33.2679 30.7903L33.1449 31.0624C32.552 32.313 31.6919 33.2918 30.5647 33.9988C29.3571 34.7562 28.0126 35.135 26.5313 35.135C25.0123 35.135 23.6796 34.7991 22.5332 34.1274C21.3869 33.4557 20.4952 32.5172 19.8584 31.3119C19.2215 30.1066 18.9031 28.7084 18.9031 27.1172C18.9031 25.4308 19.2168 23.9683 19.8442 22.7296C20.4717 21.491 21.3468 20.5335 22.4695 19.857C23.5923 19.1805 24.899 18.8422 26.3898 18.8422ZM26.4239 21.7174C24.8594 21.7174 23.6835 22.1676 22.8962 23.0681L22.7532 23.2416C22.292 23.8356 21.9844 24.5859 21.8307 25.4926L21.8215 25.551H30.5769L30.5762 25.5391C30.4351 24.4238 30.1049 23.5592 29.5854 22.9453C28.8928 22.1267 27.839 21.7174 26.4239 21.7174ZM49.8043 14.5547V34.715H47.082L47.0815 33.3236L46.8963 33.5026C46.6713 33.71 46.4307 33.9018 46.1745 34.078C45.15 34.7826 43.8816 35.135 42.3691 35.135C40.8958 35.135 39.6249 34.785 38.5564 34.085C37.488 33.385 36.6635 32.4306 36.0829 31.2219C35.5024 30.0132 35.2121 28.6529 35.2121 27.1409C35.2121 25.6195 35.5048 24.2592 36.0902 23.0598C36.6757 21.8605 37.5075 20.9131 38.5857 20.2178C39.6639 19.5224 40.9446 19.1748 42.4277 19.1748C43.9206 19.1748 45.1768 19.5224 46.1965 20.2178L46.4462 20.3969C46.5277 20.4584 46.6075 20.5216 46.6856 20.5866L46.7302 20.6269L46.7307 14.5547H49.8043ZM42.6345 22.0384C41.6039 22.0384 40.7566 22.268 40.0927 22.7271C39.4287 23.1863 38.9357 23.803 38.6136 24.5772C38.2916 25.3514 38.1305 26.2157 38.1305 27.17C38.1305 28.1333 38.2916 29.0043 38.6136 29.783C38.9357 30.5618 39.4213 31.1807 40.0704 31.6399C40.7195 32.099 41.5395 32.3286 42.5305 32.3286C43.5512 32.3286 44.3836 32.108 45.0278 31.6669C45.6719 31.2257 46.1426 30.6181 46.4399 29.8438C46.7372 29.0696 46.8859 28.1783 46.8859 27.17C46.8859 26.1617 46.7347 25.2704 46.4325 24.4962C46.1302 23.7219 45.6645 23.1188 45.0352 22.6866C44.4059 22.2545 43.6057 22.0384 42.6345 22.0384Z" fill="#1C3749"/>
<path d="M12.7681 38.5654C12.9073 38.5671 13.0804 38.5723 13.2872 38.5808C13.5458 38.5916 13.777 38.6148 13.9809 38.6505C14.9205 38.7934 15.6907 39.0971 16.2915 39.5616C16.8924 40.0261 17.3348 40.6103 17.6189 41.3142C17.9029 42.018 18.0449 42.8023 18.0449 43.667C18.0449 44.5316 17.9011 45.3159 17.6134 46.0198C17.3257 46.7236 16.8815 47.3078 16.2806 47.7723C15.6797 48.2368 14.9132 48.5405 13.9809 48.6834C13.777 48.712 13.544 48.7334 13.2818 48.7477C13.0196 48.762 12.8157 48.7692 12.67 48.7692H8.99934V54H6.02783V38.5648L12.7681 38.5654ZM12.5389 41.2874H8.99934V46.0466H12.5389C12.6918 46.0466 12.8593 46.0394 13.0414 46.0251C13.2235 46.0108 13.391 45.9822 13.544 45.9394C13.9445 45.8322 14.2541 45.6517 14.4726 45.3981C14.6911 45.1444 14.8422 44.8621 14.9259 44.5513C15.0097 44.2404 15.0516 43.9456 15.0516 43.667C15.0516 43.3883 15.0097 43.0935 14.9259 42.7826C14.8422 42.4718 14.6911 42.1895 14.4726 41.9359C14.2541 41.6822 13.9445 41.5017 13.544 41.3945C13.391 41.3517 13.2235 41.3231 13.0414 41.3088C12.8593 41.2945 12.6918 41.2874 12.5389 41.2874ZM28.0983 38.5654C28.2351 38.5671 28.4051 38.5723 28.6082 38.5808C28.8621 38.5916 29.0893 38.6148 29.2895 38.6505C30.2123 38.7934 30.9687 39.0971 31.5588 39.5616C32.149 40.0261 32.5835 40.6103 32.8625 41.3142C33.1415 42.018 33.2809 42.8023 33.2809 43.667C33.2809 44.9604 32.9591 46.0662 32.3153 46.9845L32.1817 47.1634C31.8124 47.6281 31.3393 47.9927 30.7625 48.2572L30.7047 48.2818L33.4955 54H30.1908L27.6533 48.7702L24.3968 48.7692V54H21.4784V38.5648L28.0983 38.5654ZM27.8732 41.2874H24.3968V46.0466H27.8732C28.0234 46.0466 28.188 46.0394 28.3668 46.0251C28.5456 46.0108 28.7101 45.9822 28.8604 45.9394C29.2538 45.8322 29.5578 45.6517 29.7724 45.3981C29.987 45.1444 30.1354 44.8621 30.2176 44.5513C30.2999 44.2404 30.341 43.9456 30.341 43.667C30.341 43.3883 30.2999 43.0935 30.2176 42.7826C30.1354 42.4718 29.987 42.1895 29.7724 41.9359C29.5578 41.6822 29.2538 41.5017 28.8604 41.3945C28.7101 41.3517 28.5456 41.3231 28.3668 41.3088C28.188 41.2945 28.0234 41.2874 27.8732 41.2874ZM42.0792 38.5648C43.673 38.5648 45.0472 38.8872 46.202 39.532C47.3567 40.1769 48.2458 41.079 48.8693 42.2383C49.4928 43.3977 49.8045 44.7457 49.8045 46.2824C49.8045 47.819 49.4928 49.167 48.8693 50.3264C48.2458 51.4858 47.3567 52.3879 46.202 53.0327C45.0472 53.6776 43.673 54 42.0792 54C40.4855 54 39.1112 53.6776 37.9565 53.0327C36.8017 52.3879 35.9126 51.4858 35.2891 50.3264C34.6656 49.167 34.3539 47.819 34.3539 46.2824C34.3539 44.7457 34.6656 43.3977 35.2891 42.2383C35.9126 41.079 36.8017 40.1769 37.9565 39.532C39.1112 38.8872 40.4855 38.5648 42.0792 38.5648ZM42.0792 41.199C41.0684 41.1853 40.2272 41.3877 39.5558 41.8062C38.8843 42.2246 38.3807 42.818 38.045 43.5864C37.7093 44.3547 37.5414 45.2534 37.5414 46.2824C37.5414 47.3114 37.7093 48.2032 38.045 48.9578C38.3807 49.7124 38.8843 50.299 39.5558 50.7174C40.2272 51.1359 41.0684 51.352 42.0792 51.3657C43.0901 51.3794 43.9312 51.1771 44.6027 50.7586C45.2741 50.3401 45.7777 49.7467 46.1134 48.9784C46.4491 48.2101 46.617 47.3114 46.617 46.2824C46.617 45.2534 46.4491 44.3615 46.1134 43.6069C45.7777 42.8523 45.2741 42.2658 44.6027 41.8473C43.9312 41.4289 43.0901 41.2128 42.0792 41.199Z" fill="#1C3749"/>
<path d="M69.8586 13.9327L72.8799 5.15332H74.0677L77.089 13.9327H76.157L73.288 5.65326H73.6413L70.7906 13.9327H69.8586ZM71.2048 11.805V10.9636H75.7367V11.805H71.2048Z" fill="#1C3749"/>
<path d="M78.5544 13.9327V5.15332H79.4499V9.29913L83.452 5.15332H84.597L80.5098 9.39058L84.932 13.9327H83.7626L79.4499 9.543V13.9327H78.5544Z" fill="#1C3749"/>
<path d="M85.5442 13.9327L88.5655 5.15332H89.7533L92.7746 13.9327H91.8426L88.9736 5.65326H89.3269L86.4762 13.9327H85.5442ZM86.8904 11.805V10.9636H91.4223V11.805H86.8904Z" fill="#1C3749"/>
<path d="M94.2722 15.3961V13.0732C94.6133 13.0732 94.8874 12.9878 95.0946 12.8171C95.3017 12.6423 95.46 12.4107 95.5697 12.1221C95.6793 11.8335 95.7626 11.5104 95.8194 11.1527C95.8763 10.791 95.925 10.4252 95.9656 10.0553C96.0225 9.51466 96.0671 8.99237 96.0996 8.48837C96.1362 7.98437 96.1666 7.46208 96.191 6.9215C96.2194 6.38092 96.2519 5.78953 96.2885 5.14734L101.698 5.15343V13.0732H102.325V15.3961H101.436V13.9328H95.1676V15.3961H94.2722ZM95.9839 13.0732H100.802V6.01308L97.123 6.00698C97.0986 6.50285 97.0742 6.98247 97.0499 7.44582C97.0255 7.90918 96.9971 8.3766 96.9646 8.84808C96.9321 9.31956 96.8895 9.81137 96.8367 10.3235C96.792 10.791 96.7392 11.1994 96.6783 11.549C96.6174 11.8985 96.5321 12.1973 96.4225 12.4452C96.3169 12.6932 96.1707 12.9025 95.9839 13.0732Z" fill="#1C3749"/>
<path d="M104.028 13.9327V5.15332H109.51V6.01297H104.924V9.04916H108.779V9.90881H104.924V13.0731H109.51V13.9327H104.028Z" fill="#1C3749"/>
<path d="M111.342 13.9327V5.15332H112.164L115.612 12.5366L119.041 5.15332H119.875V13.9266H119.023V7.15307L115.898 13.9327H115.319L112.2 7.15307V13.9327H111.342Z" fill="#1C3749"/>
<path d="M128.584 13.9327V5.15332H127.682L122.852 12.3476V5.15332H121.95V13.9327H122.852L127.682 6.73239V13.9327H128.584Z" fill="#1C3749"/>
<path d="M136.631 13.9327V5.15332H133.245C133.159 5.15332 133.062 5.15739 132.952 5.16552C132.847 5.16958 132.739 5.18178 132.629 5.2021C132.17 5.2712 131.781 5.43174 131.46 5.68374C131.143 5.93168 130.901 6.24465 130.735 6.62265C130.573 7.00065 130.491 7.41929 130.491 7.87858C130.491 8.5411 130.666 9.11623 131.015 9.60397C131.364 10.0918 131.864 10.3986 132.514 10.5246L132.824 10.5978H135.736V13.9327H136.631ZM131.32 13.9327L133.05 10.36L132.191 10.0308L130.29 13.9327H131.32ZM135.736 9.7442H133.269C133.196 9.7442 133.111 9.74013 133.013 9.732C132.916 9.72387 132.82 9.70965 132.727 9.68932C132.426 9.62429 132.179 9.50033 131.984 9.31742C131.793 9.13452 131.649 8.91707 131.551 8.66507C131.458 8.41307 131.411 8.15091 131.411 7.87858C131.411 7.60626 131.458 7.3441 131.551 7.0921C131.649 6.83603 131.793 6.61655 131.984 6.43365C132.179 6.25074 132.426 6.12678 132.727 6.06174C132.82 6.04142 132.916 6.02923 133.013 6.02516C133.111 6.01703 133.196 6.01297 133.269 6.01297H135.736V9.7442Z" fill="#1C3749"/>
<path d="M70.0598 32.8153V30.4924C70.4009 30.4924 70.675 30.4072 70.8821 30.2365C71.0892 30.0617 71.2476 29.8299 71.3573 29.5413C71.4669 29.2528 71.5502 28.9297 71.607 28.5721C71.6639 28.2102 71.7126 27.8444 71.7532 27.4746C71.8101 26.9341 71.8547 26.4117 71.8872 25.9077C71.9238 25.4037 71.9542 24.8814 71.9786 24.3408C72.007 23.8002 72.0395 23.2089 72.076 22.5667L77.4851 22.5728V30.4924H78.1125V32.8153H77.2232V31.3521H70.9552V32.8153H70.0598ZM71.7715 30.4924H76.5897V23.4324L72.9106 23.4263C72.8862 23.9221 72.8618 24.4019 72.8375 24.8652C72.8131 25.3286 72.7847 25.796 72.7522 26.2675C72.7197 26.739 72.6771 27.2307 72.6243 27.7428C72.5796 28.2102 72.5268 28.6188 72.4659 28.9683C72.405 29.3179 72.3197 29.6165 72.2101 29.8645C72.1045 30.1124 71.9583 30.3217 71.7715 30.4924Z" fill="#1C3749"/>
<path d="M83.367 31.535C82.4939 31.535 81.7568 31.3419 81.1558 30.9558C80.5548 30.5656 80.1 30.0271 79.7914 29.3401C79.4827 28.6532 79.3284 27.8607 79.3284 26.9624C79.3284 26.0641 79.4827 25.2716 79.7914 24.5847C80.1 23.8978 80.5548 23.3612 81.1558 22.9751C81.7568 22.5849 82.4939 22.3898 83.367 22.3898C84.2441 22.3898 84.9812 22.5849 85.5781 22.9751C86.1791 23.3612 86.6339 23.8978 86.9426 24.5847C87.2553 25.2716 87.4116 26.0641 87.4116 26.9624C87.4116 27.8607 87.2553 28.6532 86.9426 29.3401C86.6339 30.0271 86.1791 30.5656 85.5781 30.9558C84.9812 31.3419 84.2441 31.535 83.367 31.535ZM83.367 30.6753C84.0533 30.6753 84.6258 30.5189 85.0847 30.2059C85.5436 29.8929 85.8867 29.458 86.1141 28.9012C86.3456 28.3403 86.4614 27.694 86.4614 26.9624C86.4614 26.2308 86.3456 25.5866 86.1141 25.0297C85.8867 24.4729 85.5436 24.038 85.0847 23.725C84.6258 23.4121 84.0533 23.2535 83.367 23.2495C82.6807 23.2495 82.1101 23.406 81.6553 23.7189C81.2005 24.0319 80.8573 24.4688 80.6259 25.0297C80.3985 25.5866 80.2827 26.2308 80.2787 26.9624C80.2746 27.694 80.3863 28.3382 80.6137 28.8951C80.8452 29.4479 81.1903 29.8828 81.6492 30.1998C82.1081 30.5128 82.6807 30.6713 83.367 30.6753Z" fill="#1C3749"/>
<path d="M88.9968 31.3522V22.5728H95.7155V31.3522H94.8201V23.4325H89.8922V31.3522H88.9968Z" fill="#1C3749"/>
<path d="M101.337 31.535C100.464 31.535 99.7265 31.3419 99.1255 30.9558C98.5245 30.5656 98.0696 30.0271 97.761 29.3401C97.4524 28.6532 97.2981 27.8607 97.2981 26.9624C97.2981 26.0641 97.4524 25.2716 97.761 24.5847C98.0696 23.8978 98.5245 23.3612 99.1255 22.9751C99.7265 22.5849 100.464 22.3898 101.337 22.3898C102.214 22.3898 102.951 22.5849 103.548 22.9751C104.149 23.3612 104.604 23.8978 104.912 24.5847C105.225 25.2716 105.381 26.0641 105.381 26.9624C105.381 27.8607 105.225 28.6532 104.912 29.3401C104.604 30.0271 104.149 30.5656 103.548 30.9558C102.951 31.3419 102.214 31.535 101.337 31.535ZM101.337 30.6753C102.023 30.6753 102.596 30.5189 103.054 30.2059C103.513 29.8929 103.856 29.458 104.084 28.9012C104.315 28.3403 104.431 27.694 104.431 26.9624C104.431 26.2308 104.315 25.5866 104.084 25.0297C103.856 24.4729 103.513 24.038 103.054 23.725C102.596 23.4121 102.023 23.2535 101.337 23.2495C100.65 23.2495 100.08 23.406 99.625 23.7189C99.1701 24.0319 98.827 24.4688 98.5955 25.0297C98.3681 25.5866 98.2524 26.2308 98.2483 26.9624C98.2443 27.694 98.3559 28.3382 98.5834 28.8951C98.8148 29.4479 99.16 29.8828 99.6189 30.1998C100.078 30.5128 100.65 30.6713 101.337 30.6753Z" fill="#1C3749"/>
<path d="M106.12 31.3522V30.5535C106.343 30.5738 106.528 30.5657 106.674 30.5291C106.82 30.4885 106.938 30.3991 107.027 30.2609C107.121 30.1227 107.202 29.9174 107.271 29.6451C107.34 29.3687 107.409 29.009 107.478 28.566C107.555 28.0863 107.62 27.6088 107.673 27.1332C107.73 26.6577 107.779 26.176 107.819 25.6883C107.864 25.1965 107.9 24.6925 107.929 24.1763C107.957 23.6601 107.984 23.1256 108.008 22.5728H113.545V31.3522H112.65V23.4325H108.873C108.844 23.8511 108.816 24.2799 108.788 24.7189C108.763 25.1579 108.731 25.607 108.69 26.0663C108.654 26.5256 108.607 26.9991 108.55 27.4868C108.497 27.9705 108.43 28.4704 108.349 28.9866C108.284 29.3768 108.207 29.7386 108.118 30.0719C108.032 30.4052 107.91 30.6856 107.752 30.9132C107.598 31.1408 107.389 31.2973 107.125 31.3827C106.865 31.468 106.53 31.4579 106.12 31.3522Z" fill="#1C3749"/>
<path d="M115.613 31.3522V22.5728H116.508V26.5296H121.357V22.5728H122.246V31.3522H121.357V27.3893H116.508V31.3522H115.613Z" fill="#1C3749"/>
<path d="M130.951 31.3522V22.5728H130.05L125.219 29.767V22.5728H124.318V31.3522H125.219L130.05 24.1519V31.3522H130.951Z" fill="#1C3749"/>
<path d="M135.356 31.3522V23.4325H132.292V22.5728H139.316V23.4325H136.252V31.3522H135.356Z" fill="#1C3749"/>
<path d="M140.658 31.3522V22.5728H146.14V23.4325H141.553V26.4687H145.409V27.3283H141.553V30.4925H146.14V31.3522H140.658Z" fill="#1C3749"/>
<path d="M147.362 31.3522V30.5535C147.585 30.5738 147.77 30.5657 147.916 30.5291C148.063 30.4885 148.18 30.3991 148.27 30.2609C148.363 30.1227 148.444 29.9174 148.513 29.6451C148.582 29.3687 148.651 29.009 148.721 28.566C148.798 28.0863 148.863 27.6088 148.915 27.1332C148.972 26.6577 149.021 26.176 149.062 25.6883C149.106 25.1965 149.143 24.6925 149.171 24.1763C149.2 23.6601 149.226 23.1256 149.25 22.5728H154.787V31.3522H153.892V23.4325H150.115C150.087 23.8511 150.059 24.2799 150.03 24.7189C150.006 25.1579 149.973 25.607 149.933 26.0663C149.896 26.5256 149.849 26.9991 149.793 27.4868C149.74 27.9705 149.673 28.4704 149.592 28.9866C149.527 29.3768 149.449 29.7386 149.36 30.0719C149.275 30.4052 149.153 30.6856 148.995 30.9132C148.84 31.1408 148.631 31.2973 148.367 31.3827C148.107 31.468 147.772 31.4579 147.362 31.3522Z" fill="#1C3749"/>
<path d="M156.849 31.3522V22.5728H157.744V25.9078H160.236C160.321 25.9078 160.416 25.9118 160.522 25.92C160.632 25.924 160.743 25.9362 160.857 25.9565C161.312 26.0256 161.698 26.1862 162.014 26.4382C162.335 26.6861 162.577 26.9991 162.739 27.3771C162.906 27.7551 162.989 28.1717 162.989 28.6269C162.989 29.0862 162.906 29.5049 162.739 29.8829C162.577 30.2609 162.335 30.5759 162.014 30.8279C161.698 31.0758 161.312 31.2343 160.857 31.3034C160.743 31.3197 160.632 31.3319 160.522 31.34C160.416 31.3481 160.321 31.3522 160.236 31.3522H156.849ZM157.744 30.4925H160.211C160.289 30.4925 160.376 30.4885 160.473 30.4803C160.571 30.4722 160.666 30.46 160.76 30.4438C161.056 30.3787 161.302 30.2548 161.497 30.0719C161.692 29.889 161.836 29.6715 161.929 29.4195C162.023 29.1634 162.069 28.8992 162.069 28.6269C162.069 28.3546 162.023 28.0924 161.929 27.8404C161.836 27.5884 161.692 27.371 161.497 27.1881C161.302 27.0052 161.056 26.8812 160.76 26.8162C160.666 26.7959 160.571 26.7816 160.473 26.7735C160.376 26.7654 160.289 26.7613 160.211 26.7613H157.744V30.4925Z" fill="#1C3749"/>
<path d="M164.692 31.3522V22.5728H165.587V26.5296H170.436V22.5728H171.325V31.3522H170.436V27.3893H165.587V31.3522H164.692Z" fill="#1C3749"/>
<path d="M176.949 31.535C176.075 31.535 175.338 31.3419 174.737 30.9558C174.136 30.5656 173.682 30.0271 173.373 29.3401C173.064 28.6532 172.91 27.8607 172.91 26.9624C172.91 26.0641 173.064 25.2716 173.373 24.5847C173.682 23.8978 174.136 23.3612 174.737 22.9751C175.338 22.5849 176.075 22.3898 176.949 22.3898C177.826 22.3898 178.563 22.5849 179.16 22.9751C179.761 23.3612 180.215 23.8978 180.524 24.5847C180.837 25.2716 180.993 26.0641 180.993 26.9624C180.993 27.8607 180.837 28.6532 180.524 29.3401C180.215 30.0271 179.761 30.5656 179.16 30.9558C178.563 31.3419 177.826 31.535 176.949 31.535ZM176.949 30.6753C177.635 30.6753 178.207 30.5189 178.666 30.2059C179.125 29.8929 179.468 29.458 179.696 28.9012C179.927 28.3403 180.043 27.694 180.043 26.9624C180.043 26.2308 179.927 25.5866 179.696 25.0297C179.468 24.4729 179.125 24.038 178.666 23.725C178.207 23.4121 177.635 23.2535 176.949 23.2495C176.262 23.2495 175.692 23.406 175.237 23.7189C174.782 24.0319 174.439 24.4688 174.207 25.0297C173.98 25.5866 173.864 26.2308 173.86 26.9624C173.856 27.694 173.968 28.3382 174.195 28.8951C174.427 29.4479 174.772 29.8828 175.231 30.1998C175.69 30.5128 176.262 30.6713 176.949 30.6753Z" fill="#1C3749"/>
<path d="M182.579 31.3522V22.5728H188.061V23.4325H183.474V31.3522H182.579Z" fill="#1C3749"/>
<path d="M192.955 31.535C192.082 31.535 191.345 31.3419 190.744 30.9558C190.143 30.5656 189.688 30.0271 189.38 29.3401C189.071 28.6532 188.917 27.8607 188.917 26.9624C188.917 26.0641 189.071 25.2716 189.38 24.5847C189.688 23.8978 190.143 23.3612 190.744 22.9751C191.345 22.5849 192.082 22.3898 192.955 22.3898C193.833 22.3898 194.57 22.5849 195.167 22.9751C195.768 23.3612 196.222 23.8978 196.531 24.5847C196.844 25.2716 197 26.0641 197 26.9624C197 27.8607 196.844 28.6532 196.531 29.3401C196.222 30.0271 195.768 30.5656 195.167 30.9558C194.57 31.3419 193.833 31.535 192.955 31.535ZM192.955 30.6753C193.642 30.6753 194.214 30.5189 194.673 30.2059C195.132 29.8929 195.475 29.458 195.703 28.9012C195.934 28.3403 196.05 27.694 196.05 26.9624C196.05 26.2308 195.934 25.5866 195.703 25.0297C195.475 24.4729 195.132 24.038 194.673 23.725C194.214 23.4121 193.642 23.2535 192.955 23.2495C192.269 23.2495 191.699 23.406 191.244 23.7189C190.789 24.0319 190.446 24.4688 190.214 25.0297C189.987 25.5866 189.871 26.2308 189.867 26.9624C189.863 27.694 189.975 28.3382 190.202 28.8951C190.434 29.4479 190.779 29.8828 191.238 30.1998C191.696 30.5128 192.269 30.6713 192.955 30.6753Z" fill="#1C3749"/>
<path d="M74.0191 48.9543C73.146 48.9543 72.4089 48.7613 71.8079 48.3751C71.2069 47.985 70.7521 47.4464 70.4435 46.7595C70.1348 46.0726 69.9805 45.28 69.9805 44.3818C69.9805 43.4835 70.1348 42.6909 70.4435 42.004C70.7521 41.3171 71.2069 40.7806 71.8079 40.3945C72.4089 40.0043 73.146 39.8092 74.0191 39.8092C74.8962 39.8092 75.6333 40.0043 76.2302 40.3945C76.8312 40.7806 77.286 41.3171 77.5947 42.004C77.9074 42.6909 78.0637 43.4835 78.0637 44.3818C78.0637 45.28 77.9074 46.0726 77.5947 46.7595C77.286 47.4464 76.8312 47.985 76.2302 48.3751C75.6333 48.7613 74.8962 48.9543 74.0191 48.9543ZM74.0191 48.0947C74.7054 48.0947 75.2779 47.9382 75.7368 47.6252C76.1957 47.3123 76.5388 46.8774 76.7663 46.3205C76.9977 45.7596 77.1135 45.1134 77.1135 44.3818C77.1135 43.6501 76.9977 43.0059 76.7663 42.4491C76.5388 41.8922 76.1957 41.4573 75.7368 41.1444C75.2779 40.8314 74.7054 40.6729 74.0191 40.6688C73.3328 40.6688 72.7622 40.8253 72.3074 41.1383C71.8526 41.4512 71.5095 41.8882 71.278 42.4491C71.0506 43.0059 70.9348 43.6501 70.9308 44.3818C70.9267 45.1134 71.0384 45.7576 71.2658 46.3144C71.4973 46.8672 71.8424 47.3021 72.3013 47.6191C72.7602 47.9321 73.3328 48.0906 74.0191 48.0947Z" fill="#1C3749"/>
<path d="M79.6492 48.7714V39.9921H85.0643V40.8517H80.5446V43.4063H83.0359C83.1212 43.4063 83.2166 43.4103 83.3222 43.4185C83.4319 43.4225 83.5415 43.4327 83.6512 43.449C84.1019 43.5099 84.4857 43.6644 84.8024 43.9123C85.1232 44.1602 85.3669 44.4732 85.5334 44.8512C85.7039 45.2292 85.7892 45.6418 85.7892 46.0889C85.7892 46.536 85.7039 46.9485 85.5334 47.3265C85.3669 47.7045 85.1232 48.0175 84.8024 48.2654C84.4857 48.5133 84.1019 48.6678 83.6512 48.7288C83.5415 48.741 83.4319 48.7511 83.3222 48.7592C83.2166 48.7674 83.1212 48.7714 83.0359 48.7714H79.6492ZM80.5446 47.9118H83.0116C83.0847 47.9118 83.1699 47.9077 83.2674 47.8996C83.3649 47.8915 83.4603 47.8793 83.5537 47.863C84.0045 47.7736 84.3354 47.5582 84.5466 47.2168C84.7618 46.8713 84.8694 46.4953 84.8694 46.0889C84.8694 45.6783 84.7618 45.3024 84.5466 44.961C84.3354 44.6195 84.0045 44.4041 83.5537 44.3147C83.4603 44.2944 83.3649 44.2822 83.2674 44.2781C83.1699 44.27 83.0847 44.2659 83.0116 44.2659H80.5446V47.9118Z" fill="#1C3749"/>
<path d="M87.3669 48.7714V39.9921H90.7536C90.8389 39.9921 90.9343 39.9961 91.0399 40.0043C91.1496 40.0083 91.2592 40.0205 91.3689 40.0409C91.8277 40.11 92.2155 40.2705 92.5323 40.5225C92.8531 40.7704 93.0947 41.0834 93.2572 41.4614C93.4237 41.8394 93.507 42.2581 93.507 42.7173C93.507 43.1726 93.4237 43.5892 93.2572 43.9672C93.0907 44.3452 92.847 44.6602 92.5262 44.9122C92.2095 45.1601 91.8238 45.3186 91.3689 45.3877C91.2592 45.404 91.1496 45.4162 91.0399 45.4243C90.9343 45.4324 90.8389 45.4365 90.7536 45.4365H88.2623V48.7714H87.3669ZM88.2623 44.583H90.7293C90.8024 44.583 90.8876 44.5789 90.9851 44.5708C91.0826 44.5626 91.178 44.5484 91.2714 44.5281C91.5719 44.4631 91.8176 44.3391 92.0084 44.1562C92.2034 43.9733 92.3475 43.7558 92.4409 43.5038C92.5384 43.2518 92.5871 42.9897 92.5871 42.7173C92.5871 42.445 92.5384 42.1829 92.4409 41.9309C92.3475 41.6748 92.2034 41.4553 92.0084 41.2724C91.8176 41.0895 91.5719 40.9655 91.2714 40.9005C91.178 40.8802 91.0826 40.868 90.9851 40.8639C90.8876 40.8558 90.8024 40.8517 90.7293 40.8517H88.2623V44.583Z" fill="#1C3749"/>
<path d="M94.2378 48.7714L97.2591 39.9921H98.4469L101.468 48.7714H100.536L97.6672 40.492H98.0205L95.1697 48.7714H94.2378ZM95.584 46.6437V45.8023H100.116V46.6437H95.584Z" fill="#1C3749"/>
<path d="M105.504 48.9543C104.907 48.9543 104.389 48.867 103.95 48.6922C103.516 48.5174 103.159 48.2878 102.878 48.0032C102.598 47.7147 102.389 47.4037 102.251 47.0704L103.067 46.5949C103.165 46.8713 103.319 47.1233 103.53 47.3509C103.741 47.5785 104.013 47.7594 104.346 47.8935C104.679 48.0276 105.075 48.0947 105.534 48.0947C106.009 48.0947 106.411 48.0195 106.74 47.8691C107.073 47.7187 107.325 47.5074 107.496 47.2351C107.666 46.9627 107.751 46.6457 107.751 46.284C107.751 45.8856 107.656 45.5767 107.465 45.3572C107.274 45.1378 107.018 44.9833 106.698 44.8939C106.377 44.8004 106.019 44.7476 105.626 44.7354C105.329 44.7232 105.118 44.7151 104.992 44.711C104.866 44.7069 104.783 44.7049 104.742 44.7049C104.702 44.7049 104.663 44.7049 104.627 44.7049V43.8391C104.655 43.8391 104.73 43.8391 104.852 43.8391C104.974 43.8391 105.104 43.8391 105.242 43.8391C105.38 43.8351 105.49 43.831 105.571 43.827C106.151 43.7985 106.608 43.6461 106.941 43.3697C107.274 43.0933 107.441 42.7194 107.441 42.2479C107.441 41.748 107.264 41.3598 106.911 41.0834C106.562 40.807 106.109 40.6688 105.552 40.6688C105.029 40.6688 104.586 40.7948 104.225 41.0468C103.867 41.2948 103.575 41.6281 103.347 42.0467L102.616 41.5041C102.893 41.0082 103.282 40.6018 103.786 40.2847C104.29 39.9677 104.887 39.8092 105.577 39.8092C105.946 39.8092 106.3 39.86 106.637 39.9616C106.978 40.0632 107.278 40.2136 107.538 40.4128C107.802 40.6119 108.009 40.8639 108.16 41.1688C108.314 41.4695 108.391 41.8231 108.391 42.2296C108.391 42.7051 108.285 43.1197 108.074 43.4733C107.867 43.827 107.599 44.0932 107.27 44.272C107.717 44.4062 108.066 44.6419 108.318 44.9792C108.574 45.3166 108.702 45.7576 108.702 46.3022C108.702 46.8388 108.57 47.3062 108.306 47.7045C108.042 48.1028 107.668 48.4117 107.185 48.6312C106.706 48.8466 106.145 48.9543 105.504 48.9543Z" fill="#1C3749"/>
<path d="M113.882 48.9543C113.008 48.9543 112.271 48.7613 111.67 48.3751C111.069 47.985 110.615 47.4464 110.306 46.7595C109.997 46.0726 109.843 45.28 109.843 44.3818C109.843 43.4835 109.997 42.6909 110.306 42.004C110.615 41.3171 111.069 40.7806 111.67 40.3945C112.271 40.0043 113.008 39.8092 113.882 39.8092C114.759 39.8092 115.496 40.0043 116.093 40.3945C116.694 40.7806 117.148 41.3171 117.457 42.004C117.77 42.6909 117.926 43.4835 117.926 44.3818C117.926 45.28 117.77 46.0726 117.457 46.7595C117.148 47.4464 116.694 47.985 116.093 48.3751C115.496 48.7613 114.759 48.9543 113.882 48.9543ZM113.882 48.0947C114.568 48.0947 115.14 47.9382 115.599 47.6252C116.058 47.3123 116.401 46.8774 116.629 46.3205C116.86 45.7596 116.976 45.1134 116.976 44.3818C116.976 43.6501 116.86 43.0059 116.629 42.4491C116.401 41.8922 116.058 41.4573 115.599 41.1444C115.14 40.8314 114.568 40.6729 113.882 40.6688C113.195 40.6688 112.625 40.8253 112.17 41.1383C111.715 41.4512 111.372 41.8882 111.14 42.4491C110.913 43.0059 110.797 43.6501 110.793 44.3818C110.789 45.1134 110.901 45.7576 111.128 46.3144C111.36 46.8672 111.705 47.3021 112.164 47.6191C112.623 47.9321 113.195 48.0906 113.882 48.0947Z" fill="#1C3749"/>
<path d="M119.511 48.7714V39.9921H122.898C123.39 39.9921 123.818 40.0937 124.184 40.2969C124.549 40.5002 124.833 40.7745 125.036 41.12C125.239 41.4614 125.341 41.8394 125.341 42.254C125.341 42.7255 125.215 43.1462 124.963 43.516C124.711 43.8818 124.374 44.1359 123.952 44.2781L123.94 43.9794C124.508 44.142 124.955 44.4265 125.28 44.8329C125.605 45.2394 125.767 45.7312 125.767 46.3083C125.767 46.8164 125.66 47.2554 125.444 47.6252C125.229 47.9911 124.927 48.2735 124.537 48.4727C124.147 48.6719 123.694 48.7714 123.178 48.7714H119.511ZM120.413 47.9118H122.959C123.317 47.9118 123.637 47.8488 123.922 47.7228C124.206 47.5927 124.429 47.4098 124.592 47.1741C124.758 46.9383 124.841 46.6538 124.841 46.3205C124.841 45.9954 124.766 45.7027 124.616 45.4426C124.466 45.1825 124.261 44.9752 124.001 44.8207C123.745 44.6622 123.453 44.583 123.124 44.583H120.413V47.9118ZM120.413 43.7355H122.892C123.172 43.7355 123.428 43.6725 123.66 43.5465C123.891 43.4164 124.074 43.2396 124.208 43.0161C124.346 42.7925 124.415 42.5344 124.415 42.2418C124.415 41.8272 124.271 41.4899 123.983 41.2297C123.698 40.9696 123.335 40.8395 122.892 40.8395H120.413V43.7355Z" fill="#1C3749"/>
<path d="M126.739 48.7714L129.761 39.9921H130.948L133.97 48.7714H133.038L130.169 40.492H130.522L127.671 48.7714H126.739ZM128.085 46.6437V45.8023H132.617V46.6437H128.085Z" fill="#1C3749"/>
<path d="M135.435 48.7714V39.9921H136.33V43.9489H141.179V39.9921H142.068V48.7714H141.179V44.8085H136.33V48.7714H135.435Z" fill="#1C3749"/>
<path d="M150.774 48.7714V39.9921H149.872L145.042 47.1863V39.9921H144.14V48.7714H145.042L149.872 41.5711V48.7714H150.774Z" fill="#1C3749"/>
<path d="M158.821 48.7714V39.9921H155.435C155.349 39.9921 155.252 39.9961 155.142 40.0043C155.037 40.0083 154.929 40.0205 154.819 40.0409C154.36 40.11 153.971 40.2705 153.65 40.5225C153.333 40.7704 153.091 41.0834 152.925 41.4614C152.763 41.8394 152.681 42.2581 152.681 42.7173C152.681 43.3799 152.856 43.955 153.205 44.4427C153.554 44.9305 154.054 45.2373 154.704 45.3633L155.014 45.4365H157.926V48.7714H158.821ZM153.51 48.7714L155.24 45.1987L154.381 44.8695L152.48 48.7714H153.51ZM157.926 44.583H155.459C155.386 44.583 155.301 44.5789 155.203 44.5708C155.106 44.5626 155.01 44.5484 154.917 44.5281C154.616 44.4631 154.369 44.3391 154.174 44.1562C153.983 43.9733 153.839 43.7558 153.741 43.5038C153.648 43.2518 153.601 42.9897 153.601 42.7173C153.601 42.445 153.648 42.1829 153.741 41.9309C153.839 41.6748 153.983 41.4553 154.174 41.2724C154.369 41.0895 154.616 40.9655 154.917 40.9005C155.01 40.8802 155.106 40.868 155.203 40.8639C155.301 40.8558 155.386 40.8517 155.459 40.8517H157.926V44.583Z" fill="#1C3749"/>
</svg>
