<?xml version="1.0" encoding="utf-8"?>
<!-- Generator: Adobe Illustrator 16.0.0, SVG Export Plug-In . SVG Version: 6.00 Build 0)  -->
<!DOCTYPE svg PUBLIC "-//W3C//DTD SVG 1.1//EN" "http://www.w3.org/Graphics/SVG/1.1/DTD/svg11.dtd">
<svg version="1.1" id="_x31_" xmlns="http://www.w3.org/2000/svg" xmlns:xlink="http://www.w3.org/1999/xlink" x="0px" y="0px"
	 width="200px" height="px" viewBox="0 0 907 638" enable-background="new 0 0 907 638" xml:space="preserve">
<path fill-rule="evenodd" clip-rule="evenodd" fill="#304093" d="M310.391,322.706h10.369v-28.71l12.573,17.499h1.49l12.638-17.693
	v28.905h10.37V277.34h-9.786l-13.221,19.119l-13.999-19.119h-10.434V322.706L310.391,322.706z M287.801,275.658h-6.042v103.451
	h6.042V275.658L287.801,275.658z M242.695,292.194l-33.929,9.577c-0.537,0.158-0.91,0.646-0.919,1.207v5.901h-29.865v-10.683
	c-0.005-3.396,2.407-6.314,5.743-6.949l56.542-10.281c1.697-0.309,3.329,0.795,3.676,2.484l1.02,4.982
	C245.33,290.091,244.333,291.745,242.695,292.194L242.695,292.194z M255.33,347.416c0,0.793-0.643,1.436-1.436,1.436h-10.596
	c-0.793,0-1.436-0.643-1.436-1.436v-2.685h13.468V347.416L255.33,347.416z M257.9,341.859c0.793,0,1.436-0.643,1.436-1.436v-11.027
	c-0.008-3.264-2.652-5.907-5.916-5.916h-44.396c-0.65,0-1.177-0.526-1.177-1.177V311.75h-29.865v39.858h29.779v-4.595l30.827-9.318
	v2.729c0,0.793,0.643,1.436,1.436,1.436H257.9L257.9,341.859z M260.844,367.646c0.488,0.001,0.942,0.25,1.206,0.66
	c0.89,1.437,3.747,6.031,3.747,8.228c-0.147,2.732-2.481,4.827-5.213,4.68c-2.526-0.136-4.543-2.153-4.68-4.68
	c0-2.196,2.872-6.849,3.733-8.213C259.897,367.905,260.353,367.65,260.844,367.646L260.844,367.646z M249.802,355.356
	c0.876,1.363,3.748,6.016,3.748,8.213c-0.147,2.731-2.481,4.827-5.213,4.68c-2.526-0.137-4.543-2.154-4.68-4.68
	c0-2.197,2.872-6.85,3.733-8.213c0.43-0.667,1.319-0.857,1.985-0.428C249.546,355.04,249.691,355.186,249.802,355.356
	L249.802,355.356z M237.396,368.321c0.876,1.364,3.733,6.017,3.733,8.213c-0.147,2.732-2.481,4.827-5.213,4.68
	c-2.526-0.136-4.544-2.153-4.68-4.68c0-2.196,2.872-6.849,3.733-8.213c0.424-0.67,1.311-0.869,1.981-0.445
	C237.131,367.99,237.283,368.142,237.396,368.321L237.396,368.321z M166.166,374.295l7.179-17.819
	c0.486-1.229,1.679-2.034,3.001-2.024h32.478c1.322-0.01,2.515,0.795,3,2.024l7.165,17.819c0.667,1.655-0.136,3.537-1.791,4.203
	c-0.381,0.152-0.786,0.232-1.196,0.233h-46.851c-1.785-0.006-3.226-1.457-3.22-3.241
	C165.933,375.08,166.012,374.675,166.166,374.295L166.166,374.295z M364.312,322.706h10.434l3.759-9.527h17.952l3.759,9.527h11.082
	l-18.859-45.366h-9.268L364.312,322.706L364.312,322.706z M387.513,290.626l5.055,12.832h-10.175L387.513,290.626L387.513,290.626z
	 M434.889,306.569h9.656v4.925c-1.037,0.972-4.407,2.269-7.129,2.269c-8.102,0-13.416-5.379-13.416-13.74
	c0-9.333,5.768-13.74,13.221-13.74c3.5,0,7.454,1.426,9.268,3.37l4.343-8.36c-3.694-2.917-8.101-4.731-14.841-4.731
	c-14.258,0-23.007,10.434-23.007,23.46c0,14.128,8.749,23.461,24.303,23.461c5.639,0,12.962-2.398,16.979-6.417v-20.221h-19.377
	V306.569L434.889,306.569z M458.154,322.706h10.435l3.759-9.527H490.3l3.759,9.527h11.082l-18.858-45.366h-9.268L458.154,322.706
	L458.154,322.706z M481.356,290.626l5.055,12.832h-10.175L481.356,290.626L481.356,290.626z M508.511,287.061h21.128l-22.424,28.386
	v7.259h36.941v-9.722H521.02l22.488-28.386v-7.259h-34.997V287.061L508.511,287.061z M553.877,322.706h10.369V277.34h-10.369
	V322.706L553.877,322.706z M616.741,322.706V277.34h-9.721v27.35l-21.517-27.35h-8.296v45.366h9.722v-27.22l21.517,27.22H616.741
	L616.741,322.706z M327.046,366.624c0,2.139-1.555,3.5-4.277,3.5c-3.176,0-7.129-1.491-9.721-4.796l-5.898,7.064
	c2.204,4.86,9.268,7.453,15.36,7.453c8.749,0,15.554-5.444,15.554-13.351c0-14.776-18.924-12.962-18.924-20.48
	c0-2.073,1.685-3.37,4.537-3.37c3.37,0,4.861,1.167,6.87,3.047l5.574-7.777c-2.852-3.046-7.518-4.99-13.351-4.99
	c-9.073,0-14.647,6.092-14.647,13.091C308.122,360.662,327.046,359.819,327.046,366.624L327.046,366.624z M347.137,379.067h10.37
	v-28.71l12.573,17.498h1.491l12.638-17.692v28.904h10.369v-45.366h-9.786L371.57,352.82l-13.999-19.119h-10.434V379.067
	L347.137,379.067z M406.891,379.067h27.543v-9.721H417.26v-8.231h14.582v-9.721H417.26v-7.972h16.526v-9.722h-26.896V379.067
	L406.891,379.067z M461.46,366.624c0,2.139-1.556,3.5-4.277,3.5c-3.176,0-7.129-1.491-9.721-4.796l-5.898,7.064
	c2.204,4.86,9.268,7.453,15.359,7.453c8.75,0,15.555-5.444,15.555-13.351c0-14.776-18.925-12.962-18.925-20.48
	c0-2.073,1.686-3.37,4.537-3.37c3.37,0,4.86,1.167,6.87,3.047l5.573-7.777c-2.852-3.046-7.518-4.99-13.351-4.99
	c-9.073,0-14.647,6.092-14.647,13.091C442.536,360.662,461.46,359.819,461.46,366.624L461.46,366.624z M482.198,379.067h10.37
	v-45.366h-10.37V379.067L482.198,379.067z M500.345,343.423h13.61v35.645h10.369v-35.645h13.609v-9.722h-37.589V343.423
	L500.345,343.423z M545.063,379.067h27.543v-9.721h-17.174v-8.231h14.582v-9.721h-14.582v-7.972h16.526v-9.722h-26.896V379.067
	L545.063,379.067z M582.977,379.067h28.84v-9.721h-18.471v-35.646h-10.369V379.067L582.977,379.067z M618.945,379.067h27.544v-9.721
	h-17.175v-8.231h14.582v-9.721h-14.582v-7.972h16.526v-9.722h-26.896V379.067L618.945,379.067z M693.41,333.701h-11.212
	l-9.592,17.175l-9.722-17.175h-11.859l15.943,26.896v18.471h10.369v-18.471L693.41,333.701z"/>
</svg>
