<?xml version="1.0" encoding="utf-8"?>
<!-- Generator: Adobe Illustrator 16.0.0, SVG Export Plug-In . SVG Version: 6.00 Build 0)  -->
<!DOCTYPE svg PUBLIC "-//W3C//DTD SVG 1.1//EN" "http://www.w3.org/Graphics/SVG/1.1/DTD/svg11.dtd">
<svg version="1.1" id="Слой_1" xmlns="http://www.w3.org/2000/svg" xmlns:xlink="http://www.w3.org/1999/xlink" x="0px" y="0px"
	 width="250px" height="50px" viewBox="0 0 396.85 79.37" enable-background="new 0 0 396.85 79.37" xml:space="preserve">
<path fill="#fff" d="M102.031,33.763h7.902V10.936l7.486,22.828h6.423l7.578-22.736v22.736h8.918V0.724h-12.847l-6.423,20.008
	l-6.331-20.008h-12.707L102.031,33.763L102.031,33.763L102.031,33.763z M86.894,0.218h-4.308v73.764h4.308V0.218L86.894,0.218
	L86.894,0.218z M54.732,12.008L30.54,18.837c-0.383,0.113-0.647,0.46-0.655,0.86v4.208H8.59v-7.617
	c-0.004-2.421,1.716-4.501,4.094-4.955L53,4.004c1.211-0.221,2.374,0.566,2.622,1.771l0.727,3.552
	C56.611,10.508,55.9,11.688,54.732,12.008L54.732,12.008L54.732,12.008z M63.741,51.383c0,0.565-0.458,1.024-1.024,1.024h-7.555
	c-0.566,0-1.024-0.459-1.024-1.024v-1.916h9.603V51.383L63.741,51.383L63.741,51.383z M65.574,47.421
	c0.565,0,1.023-0.459,1.023-1.024v-7.863c-0.005-2.327-1.891-4.212-4.218-4.218H30.725c-0.463,0-0.839-0.375-0.839-0.839v-7.524
	H8.592v28.419h21.233v-3.277l21.98-6.643v1.945c0,0.565,0.458,1.024,1.023,1.024H65.574L65.574,47.421L65.574,47.421z
	 M67.672,65.807c0.348,0.001,0.672,0.179,0.86,0.473c0.634,1.023,2.671,4.298,2.671,5.865c-0.105,1.948-1.769,3.441-3.717,3.337
	c-1.801-0.096-3.239-1.534-3.337-3.337c0-1.564,2.047-4.884,2.662-5.856C66.998,65.991,67.323,65.809,67.672,65.807L67.672,65.807
	L67.672,65.807z M59.8,57.045c0.625,0.971,2.672,4.29,2.672,5.856c-0.104,1.947-1.769,3.441-3.717,3.337
	c-1.801-0.099-3.239-1.537-3.336-3.337c0-1.566,2.048-4.886,2.662-5.856c0.307-0.475,0.94-0.611,1.416-0.306
	C59.617,56.818,59.722,56.922,59.8,57.045L59.8,57.045L59.8,57.045z M50.954,66.287c0.625,0.972,2.662,4.29,2.662,5.856
	c-0.105,1.947-1.769,3.441-3.717,3.337c-1.801-0.097-3.239-1.536-3.337-3.337c0-1.566,2.047-4.885,2.662-5.856
	c0.302-0.478,0.936-0.619,1.413-0.316C50.765,66.051,50.874,66.161,50.954,66.287L50.954,66.287L50.954,66.287z M0.166,70.548
	l5.118-12.705c0.348-0.877,1.198-1.449,2.14-1.444h23.158c0.942-0.007,1.793,0.566,2.139,1.444l5.109,12.703
	c0.476,1.18-0.097,2.522-1.277,2.997c-0.271,0.108-0.561,0.166-0.852,0.167H2.295C1.023,73.705-0.004,72.67,0,71.398
	C0,71.108,0.057,70.818,0.166,70.548L0.166,70.548L0.166,70.548z M166.816,28.172l1.802,5.591h9.657l-11.69-33.04h-10.721
	l-11.922,33.04h8.411l1.849-5.591H166.816L166.816,28.172L166.816,28.172z M164.783,21.75h-8.502l4.297-12.893L164.783,21.75
	L164.783,21.75L164.783,21.75z M206.419,33.763h4.759v-18.53h-14.785v6.423h5.96v0.139c0,3.281-2.541,5.499-6.378,5.499
	c-4.805,0-7.348-3.419-7.348-9.842s2.449-9.935,6.887-9.935c3.004,0,4.806,1.386,6.007,4.667l8.318-3.374
	c-1.109-2.356-1.896-3.512-3.42-4.898c-2.68-2.402-6.425-3.696-10.676-3.696c-9.795,0-16.542,7.024-16.542,17.144
	s6.284,16.958,15.573,16.958c4.436,0,7.533-1.478,9.981-4.897L206.419,33.763L206.419,33.763L206.419,33.763z M237.473,28.172
	l1.801,5.591h9.659l-11.691-33.04h-10.721l-11.923,33.04h8.411l1.847-5.591H237.473L237.473,28.172L237.473,28.172z M235.438,21.75
	h-8.502l4.297-12.893L235.438,21.75L235.438,21.75L235.438,21.75z M250.965,33.763h25.785v-7.301h-15.11l14.648-18.021V0.724
	h-24.676v7.301h14.371l-15.02,18.068L250.965,33.763L250.965,33.763L250.965,33.763z M282.48,33.763h9.104V0.724h-9.104V33.763
	L282.48,33.763L282.48,33.763z M298.792,33.763h8.18V13.384l11.367,20.379h9.289V0.724h-8.18v19.362L308.68,0.724h-9.888V33.763
	L298.792,33.763L298.792,33.763z M126.198,49.551c-2.726-4.39-7.115-6.562-13.215-6.562c-7.764,0-12.477,3.975-12.477,10.491
	c0,3.742,1.34,6.329,4.204,7.946c1.987,1.154,3.881,1.709,8.827,2.68c3.42,0.648,4.667,1.478,4.667,3.096
	c0,1.803-1.802,2.866-4.852,2.866c-3.328,0-5.453-1.249-6.701-3.929l-7.625,3.698c2.727,4.896,7.486,7.254,14.602,7.254
	c8.595,0,13.308-3.836,13.308-10.813c0-3.65-1.201-6.054-3.881-7.765c-1.987-1.247-4.205-1.941-9.38-2.91
	c-3.558-0.693-4.713-1.434-4.713-3.051c0-1.665,1.432-2.541,4.113-2.541c2.865,0,4.528,0.876,6.007,3.188L126.198,49.551
	L126.198,49.551L126.198,49.551z M132.113,76.537h7.903V53.708l7.485,22.829h6.423l7.578-22.735v22.735h8.918v-33.04h-12.847
	l-6.423,20.01l-6.331-20.01h-12.708V76.537L132.113,76.537L132.113,76.537z M177.26,76.537h24.86v-7.163h-15.941v-6.238h11.092
	v-6.839h-11.092v-5.638h15.25v-7.163H177.26V76.537L177.26,76.537L177.26,76.537z M231.695,49.551
	c-2.728-4.39-7.116-6.562-13.216-6.562c-7.764,0-12.477,3.975-12.477,10.491c0,3.742,1.34,6.329,4.204,7.946
	c1.986,1.154,3.881,1.709,8.826,2.68c3.42,0.648,4.668,1.478,4.668,3.096c0,1.803-1.801,2.866-4.852,2.866
	c-3.327,0-5.453-1.249-6.7-3.929l-7.625,3.698c2.726,4.896,7.486,7.254,14.603,7.254c8.596,0,13.31-3.836,13.31-10.813
	c0-3.65-1.204-6.054-3.883-7.765c-1.986-1.247-4.206-1.941-9.38-2.91c-3.559-0.693-4.715-1.434-4.715-3.051
	c0-1.665,1.433-2.541,4.114-2.541c2.865,0,4.528,0.876,6.008,3.188L231.695,49.551L231.695,49.551L231.695,49.551z M237.979,76.537
	h9.104v-33.04h-9.104V76.537L237.979,76.537L237.979,76.537z M260.392,76.537h9.104V50.799h8.872v-7.302H251.52v7.302h8.872V76.537
	L260.392,76.537L260.392,76.537z M282.434,76.537h24.86v-7.163h-15.943v-6.238h11.092v-6.839h-11.091v-5.638h15.251v-7.163h-24.169
	V76.537L282.434,76.537L282.434,76.537z M312.701,76.537h22.737v-7.301h-13.634V43.497h-9.104V76.537L312.701,76.537L312.701,76.537
	z M340.057,76.537h24.861v-7.163h-15.942v-6.238h11.092v-6.839h-11.092v-5.638h15.25v-7.163h-24.169V76.537L340.057,76.537
	L340.057,76.537z M376.934,76.537h9.104V62.906l10.998-19.409h-9.15l-6.054,11.784l-6.145-11.784h-10.075l11.32,19.455v13.585
	H376.934z"/>
</svg>
