<?xml version="1.0" encoding="utf-8"?>
<!-- Generator: Adobe Illustrator 16.0.0, SVG Export Plug-In . SVG Version: 6.00 Build 0)  -->
<!DOCTYPE svg PUBLIC "-//W3C//DTD SVG 1.1//EN" "http://www.w3.org/Graphics/SVG/1.1/DTD/svg11.dtd">
<svg version="1.1" id="_x31_" xmlns="http://www.w3.org/2000/svg" xmlns:xlink="http://www.w3.org/1999/xlink" x="0px" y="0px"
	 width="907px" height="638px" viewBox="0 0 907 638" enable-background="new 0 0 907 638" xml:space="preserve">
<path fill-rule="evenodd" clip-rule="evenodd" fill="#323E9A" d="M304.271,258.503h8.312v-24.012l7.874,24.012h6.757l7.971-23.915
	v23.915h9.381V223.75h-13.513l-6.756,21.046l-6.659-21.046h-13.366V258.503L304.271,258.503L304.271,258.503z M288.349,223.218
	h-4.532v77.589l4.532,0V223.218L288.349,223.218L288.349,223.218z M254.519,235.62l-25.447,7.183
	c-0.403,0.119-0.682,0.484-0.689,0.905v4.426h-22.399v-8.012c-0.004-2.547,1.805-4.735,4.307-5.212l42.406-7.71
	c1.273-0.232,2.497,0.596,2.757,1.863l0.765,3.737C256.495,234.042,255.747,235.283,254.519,235.62L254.519,235.62L254.519,235.62z
	 M263.995,277.036c0,0.595-0.482,1.077-1.077,1.077l-7.947,0c-0.595,0-1.077-0.482-1.077-1.077v-2.014l10.101,0V277.036
	L263.995,277.036L263.995,277.036z M265.923,272.868c0.595,0,1.077-0.482,1.077-1.077v-8.27c-0.006-2.448-1.989-4.43-4.437-4.437
	h-33.296c-0.487,0-0.883-0.395-0.883-0.883v-7.915l-22.398,0v29.894h22.334v-3.447l23.12-6.988v2.046
	c0,0.595,0.482,1.077,1.077,1.077L265.923,272.868L265.923,272.868L265.923,272.868z M268.13,292.209
	c0.366,0.001,0.707,0.188,0.905,0.496c0.667,1.077,2.81,4.522,2.81,6.17c-0.11,2.049-1.86,3.62-3.91,3.51
	c-1.895-0.102-3.407-1.614-3.51-3.51c0-1.647,2.154-5.137,2.8-6.16C267.421,292.403,267.762,292.211,268.13,292.209L268.13,292.209
	L268.13,292.209z M259.849,282.992c0.657,1.022,2.811,4.512,2.811,6.16c-0.11,2.048-1.86,3.62-3.91,3.51
	c-1.895-0.103-3.407-1.616-3.51-3.51c0-1.648,2.154-5.138,2.8-6.16c0.323-0.5,0.989-0.643,1.489-0.321
	C259.657,282.754,259.767,282.863,259.849,282.992L259.849,282.992L259.849,282.992z M250.545,292.714
	c0.657,1.023,2.8,4.513,2.8,6.16c-0.11,2.049-1.86,3.62-3.91,3.51c-1.895-0.102-3.407-1.615-3.51-3.51c0-1.647,2.154-5.137,2.8-6.16
	c0.318-0.502,0.984-0.652,1.486-0.333C250.346,292.465,250.46,292.581,250.545,292.714L250.545,292.714L250.545,292.714z
	 M197.123,297.195l5.384-13.364c0.365-0.922,1.259-1.525,2.251-1.519l24.358,0c0.992-0.007,1.886,0.596,2.25,1.519l5.374,13.363
	c0.5,1.241-0.102,2.653-1.343,3.152c-0.285,0.114-0.59,0.174-0.896,0.175l-35.138,0c-1.338-0.004-2.419-1.093-2.415-2.431
	C196.948,297.784,197.008,297.48,197.123,297.195L197.123,297.195L197.123,297.195z M372.416,252.622l1.896,5.881h10.158
	l-12.297-34.753h-11.277l-12.541,34.753h8.847l1.945-5.881H372.416L372.416,252.622L372.416,252.622z M370.277,245.866h-8.944
	l4.521-13.562L370.277,245.866L370.277,245.866L370.277,245.866z M414.072,258.503h5.006v-19.491h-15.553v6.756h6.27v0.146
	c0,3.451-2.673,5.784-6.708,5.784c-5.055,0-7.729-3.597-7.729-10.353c0-6.756,2.576-10.45,7.243-10.45
	c3.16,0,5.055,1.458,6.319,4.909l8.749-3.548c-1.167-2.479-1.993-3.694-3.597-5.152c-2.819-2.527-6.757-3.888-11.229-3.888
	c-10.304,0-17.4,7.388-17.4,18.033c0,10.645,6.61,17.838,16.38,17.838c4.667,0,7.923-1.555,10.499-5.152L414.072,258.503
	L414.072,258.503L414.072,258.503z M446.736,252.622l1.895,5.881h10.159l-12.297-34.753h-11.277l-12.54,34.753h8.846l1.944-5.881
	H446.736L446.736,252.622L446.736,252.622z M444.597,245.866h-8.944l4.52-13.562L444.597,245.866L444.597,245.866L444.597,245.866z
	 M460.929,258.503h27.122v-7.68l-15.894,0l15.408-18.956v-8.117H461.61v7.68h15.116l-15.798,19.005V258.503L460.929,258.503
	L460.929,258.503z M494.078,258.503h9.576V223.75h-9.576V258.503L494.078,258.503L494.078,258.503z M511.236,258.503h8.604v-21.436
	l11.957,21.436h9.77V223.75h-8.604v20.366l-11.326-20.366h-10.401L511.236,258.503L511.236,258.503L511.236,258.503z
	 M329.691,275.11c-2.868-4.618-7.484-6.902-13.901-6.902c-8.166,0-13.124,4.18-13.124,11.034c0,3.937,1.409,6.659,4.422,8.359
	c2.09,1.215,4.083,1.798,9.285,2.819c3.597,0.681,4.909,1.555,4.909,3.257c0,1.895-1.896,3.014-5.104,3.014
	c-3.5,0-5.735-1.313-7.048-4.133l-8.02,3.89c2.868,5.152,7.874,7.631,15.359,7.631c9.041,0,13.999-4.035,13.999-11.374
	c0-3.84-1.264-6.367-4.083-8.167c-2.09-1.312-4.423-2.042-9.867-3.062c-3.742-0.729-4.957-1.507-4.957-3.208
	c0-1.75,1.506-2.673,4.326-2.673c3.014,0,4.763,0.923,6.319,3.354L329.691,275.11L329.691,275.11L329.691,275.11z M335.913,303.495
	h8.313v-24.012l7.874,24.012h6.756l7.971-23.915v23.915h9.381v-34.753h-13.513l-6.756,21.047l-6.659-21.047h-13.367V303.495
	L335.913,303.495L335.913,303.495z M383.401,303.495h26.15v-7.534h-16.769v-6.562h11.667v-7.194h-11.667v-5.93h16.041v-7.534
	h-25.422V303.495L383.401,303.495L383.401,303.495z M440.659,275.11c-2.868-4.618-7.485-6.902-13.901-6.902
	c-8.166,0-13.123,4.18-13.123,11.034c0,3.937,1.409,6.659,4.422,8.359c2.09,1.215,4.083,1.798,9.284,2.819
	c3.597,0.681,4.91,1.555,4.91,3.257c0,1.895-1.895,3.014-5.104,3.014c-3.499,0-5.735-1.313-7.047-4.133l-8.02,3.89
	c2.867,5.152,7.874,7.631,15.359,7.631c9.042,0,13.999-4.035,13.999-11.374c0-3.84-1.265-6.367-4.083-8.167
	c-2.089-1.312-4.423-2.042-9.867-3.062c-3.743-0.729-4.958-1.507-4.958-3.208c0-1.75,1.507-2.673,4.327-2.673
	c3.014,0,4.764,0.923,6.319,3.354L440.659,275.11L440.659,275.11L440.659,275.11z M447.271,303.495h9.575v-34.753h-9.575V303.495
	L447.271,303.495L447.271,303.495z M470.844,303.495h9.576v-27.073l9.332,0v-7.68h-28.24v7.68h9.332V303.495L470.844,303.495
	L470.844,303.495z M494.029,303.495h26.15v-7.534h-16.77v-6.562h11.666v-7.194H503.41v-5.93h16.041v-7.534h-25.422V303.495
	L494.029,303.495L494.029,303.495z M525.866,303.495h23.916v-7.679h-14.34v-27.074h-9.576V303.495L525.866,303.495L525.866,303.495z
	 M554.642,303.495h26.15v-7.534h-16.77v-6.562h11.667v-7.194h-11.667v-5.93h16.041v-7.534h-25.422V303.495L554.642,303.495
	L554.642,303.495z M593.43,303.495h9.576v-14.338l11.568-20.415h-9.625l-6.367,12.395l-6.464-12.395h-10.597l11.908,20.463V303.495z
	"/>
</svg>
