<?xml version="1.0" encoding="utf-8"?>
<!-- Generator: Adobe Illustrator 16.0.0, SVG Export Plug-In . SVG Version: 6.00 Build 0)  -->
<!DOCTYPE svg PUBLIC "-//W3C//DTD SVG 1.1//EN" "http://www.w3.org/Graphics/SVG/1.1/DTD/svg11.dtd">
<svg version="1.1" id="_x31_" xmlns="http://www.w3.org/2000/svg" xmlns:xlink="http://www.w3.org/1999/xlink" x="0px" y="0px"
	 width="907px" height="638px" viewBox="0 0 907 638" enable-background="new 0 0 907 638" xml:space="preserve">
<path fill-rule="evenodd" clip-rule="evenodd" fill="#304093" d="M383.096,313.1v-45.885h-16.008l-9.98,29.423h-0.259
	l-10.435-29.423h-15.749V313.1H341.1l-0.259-32.469h0.194l11.601,32.469h7.777l11.925-32.469h0.194l-0.259,32.469H383.096
	L383.096,313.1z M309.502,266.052h-6.042v103.452h6.042V266.052L309.502,266.052z M264.396,282.588l-33.928,9.577
	c-0.538,0.158-0.91,0.646-0.919,1.207v5.901h-29.865V288.59c-0.005-3.396,2.408-6.314,5.743-6.95l56.543-10.28
	c1.696-0.309,3.329,0.794,3.676,2.484l1.019,4.982C267.031,280.484,266.033,282.138,264.396,282.588L264.396,282.588z
	 M277.031,337.81c0,0.793-0.643,1.436-1.436,1.436h-10.596c-0.793,0-1.436-0.643-1.436-1.436v-2.685h13.468V337.81L277.031,337.81z
	 M279.601,332.253c0.793,0,1.436-0.643,1.436-1.436V319.79c-0.008-3.264-2.652-5.908-5.916-5.916h-44.396
	c-0.65,0-1.177-0.527-1.177-1.177v-10.554h-29.865v39.858h29.779v-4.595l30.827-9.318v2.729c0,0.793,0.643,1.436,1.436,1.436
	H279.601L279.601,332.253z M282.544,358.04c0.488,0.001,0.942,0.25,1.206,0.661c0.89,1.436,3.748,6.03,3.748,8.227
	c-0.147,2.732-2.481,4.827-5.213,4.68c-2.526-0.136-4.544-2.153-4.68-4.68c0-2.196,2.872-6.849,3.733-8.213
	C281.599,358.299,282.054,358.044,282.544,358.04L282.544,358.04z M271.503,345.749c0.876,1.365,3.748,6.017,3.748,8.213
	c-0.147,2.732-2.481,4.828-5.213,4.681c-2.526-0.137-4.544-2.154-4.68-4.681c0-2.196,2.871-6.848,3.733-8.213
	c0.43-0.665,1.319-0.856,1.985-0.427C271.247,345.434,271.393,345.578,271.503,345.749L271.503,345.749z M259.097,358.715
	c0.876,1.364,3.733,6.017,3.733,8.213c-0.147,2.732-2.481,4.827-5.213,4.68c-2.526-0.136-4.543-2.153-4.68-4.68
	c0-2.196,2.872-6.849,3.733-8.213c0.424-0.67,1.311-0.869,1.981-0.445C258.832,358.383,258.984,358.535,259.097,358.715
	L259.097,358.715z M187.866,364.688l7.179-17.819c0.486-1.229,1.679-2.033,3.001-2.024h32.479c1.322-0.009,2.514,0.795,3,2.024
	l7.165,17.819c0.667,1.654-0.135,3.536-1.791,4.203c-0.38,0.152-0.786,0.231-1.196,0.233h-46.851
	c-1.785-0.006-3.226-1.457-3.22-3.241C187.634,365.474,187.713,365.068,187.866,364.688L187.866,364.688z M435.98,313.1
	l-19.054-45.885h-10.758L386.92,313.1h12.055l3.37-9.008h17.758l3.564,9.008H435.98L435.98,313.1z M417.056,295.212H405.52
	l5.833-15.749L417.056,295.212L417.056,295.212z M479.402,310.313V286.01h-18.925v8.943h8.75v8.36
	c-1.944,0.843-4.343,1.231-6.936,1.231c-9.008,0-13.998-6.027-13.998-14.452c0-8.231,5.703-14.323,13.48-14.323
	c4.472,0,8.166,1.814,10.305,4.277l6.999-7.972c-3.824-3.694-10.499-6.092-17.692-6.092c-13.999,0-24.887,9.397-24.887,24.109
	c0,14.452,10.564,24.173,25.21,24.173C468.773,314.266,474.93,312.646,479.402,310.313L479.402,310.313z M531.897,313.1
	l-19.055-45.885h-10.758L482.837,313.1h12.055l3.37-9.008h17.757l3.565,9.008H531.897L531.897,313.1z M512.973,295.212h-11.536
	l5.833-15.749L512.973,295.212L512.973,295.212z M569.681,313.1v-9.591h-22.813l22.358-27.415v-8.879h-35.19v9.397h21.321
	l-21.84,26.896v9.591H569.681L569.681,313.1z M588.021,313.1v-45.885h-11.146V313.1H588.021L588.021,313.1z M639.221,313.1v-45.885
	h-10.758l0.259,29.942h-0.194l-18.406-29.942h-12.638V313.1h10.759l-0.26-30.006h0.194l18.471,30.006H639.221L639.221,313.1z
	 M361.968,329.643c-4.018-3.694-9.851-5.639-15.036-5.639c-8.555,0-17.757,4.213-17.757,14.388c0,8.295,5.897,11.276,11.73,13.156
	c6.027,1.944,9.527,3.046,9.527,6.545c0,3.694-2.981,4.99-6.352,4.99c-3.629,0-7.712-2.073-9.916-4.86l-7.258,7.389
	c4.018,4.212,10.628,6.61,17.174,6.61c9.073,0,17.563-4.731,17.563-15.295c0-9.139-8.037-11.795-14.258-13.805
	c-4.342-1.36-7.064-2.333-7.064-5.379c0-3.629,3.564-4.602,6.416-4.602s6.287,1.556,8.166,3.953L361.968,329.643L361.968,329.643z
	 M421.398,371.055V325.17H405.39l-9.98,29.424h-0.259l-10.434-29.424h-15.749v45.885h10.434l-0.259-32.469h0.194l11.601,32.469
	h7.777l11.925-32.469h0.195l-0.26,32.469H421.398L421.398,371.055z M462.876,371.055v-9.462h-21.322v-9.526h19.054v-8.879h-19.054
	v-8.62h20.155v-9.397H430.86v45.885H462.876L462.876,371.055z M501.502,329.643c-4.019-3.694-9.852-5.639-15.036-5.639
	c-8.555,0-17.757,4.213-17.757,14.388c0,8.295,5.897,11.276,11.73,13.156c6.026,1.944,9.526,3.046,9.526,6.545
	c0,3.694-2.981,4.99-6.352,4.99c-3.629,0-7.712-2.073-9.915-4.86l-7.259,7.389c4.019,4.212,10.629,6.61,17.174,6.61
	c9.073,0,17.563-4.731,17.563-15.295c0-9.139-8.036-11.795-14.258-13.805c-4.342-1.36-7.064-2.333-7.064-5.379
	c0-3.629,3.564-4.602,6.416-4.602s6.287,1.556,8.166,3.953L501.502,329.643L501.502,329.643z M519.648,371.055V325.17h-11.147
	v45.885H519.648L519.648,371.055z M561.709,334.632v-9.462h-37.006v9.462h12.962v36.423h11.082v-36.423H561.709L561.709,334.632z
	 M598.78,371.055v-9.462h-21.322v-9.526h19.054v-8.879h-19.054v-8.62h20.155v-9.397h-30.849v45.885H598.78L598.78,371.055z
	 M635.008,371.055v-9.656h-17.757V325.17h-11.147v45.885H635.008L635.008,371.055z M672.208,371.055v-9.462h-21.322v-9.526h19.055
	v-8.879h-19.055v-8.62h20.156v-9.397h-30.85v45.885H672.208L672.208,371.055z M719.454,325.17h-12.962l-9.786,16.98l-9.786-16.98
	h-13.416l17.239,26.442v19.442h11.083v-19.442L719.454,325.17z"/>
</svg>
