<?xml version="1.0" encoding="utf-8"?>
<!-- Generator: Adobe Illustrator 16.0.0, SVG Export Plug-In . SVG Version: 6.00 Build 0)  -->
<!DOCTYPE svg PUBLIC "-//W3C//DTD SVG 1.1//EN" "http://www.w3.org/Graphics/SVG/1.1/DTD/svg11.dtd">
<svg version="1.1" id="Слой_1" xmlns="http://www.w3.org/2000/svg" xmlns:xlink="http://www.w3.org/1999/xlink" x="0px" y="0px"
	 width="250px" height="50px" viewBox="0 0 396.85 79.37" enable-background="new 0 0 396.85 79.37" xml:space="preserve">
<path fill="#2b5d8e" d="M144.801,35.296V1.8h-11.696l-7.291,21.479h-0.188L118.001,1.8h-11.506v33.496h7.623l-0.189-23.703h0.142
	l8.476,23.703h5.681l8.712-23.703h0.142l-0.189,23.703H144.801L144.801,35.296z M91.034,0.951H86.62V76.47h4.414V0.951L91.034,0.951
	z M58.082,13.022l-24.787,6.991c-0.393,0.115-0.665,0.472-0.671,0.881v4.308H10.805v-7.799c-0.004-2.479,1.758-4.609,4.195-5.073
	l41.308-7.504c1.239-0.226,2.432,0.58,2.687,1.813l0.743,3.637C60.007,11.486,59.277,12.694,58.082,13.022L58.082,13.022z
	 M67.313,53.334c0,0.579-0.471,1.048-1.051,1.048h-7.741c-0.579,0-1.049-0.469-1.049-1.048v-1.96h9.839v1.96H67.313z M69.19,49.277
	c0.578,0,1.049-0.469,1.049-1.048v-8.05c-0.006-2.382-1.938-4.313-4.323-4.318H33.482c-0.474,0-0.859-0.385-0.859-0.859v-7.705
	H10.804v29.098H32.56v-3.355l22.521-6.801v1.991c0,0.579,0.471,1.048,1.048,1.048H69.19L69.19,49.277z M71.34,68.102
	c0.356,0.001,0.688,0.183,0.881,0.482c0.65,1.048,2.738,4.401,2.738,6.006c-0.107,1.994-1.812,3.522-3.808,3.417
	c-1.846-0.101-3.32-1.571-3.42-3.417c0-1.604,2.099-5,2.727-5.997C70.649,68.29,70.981,68.105,71.34,68.102L71.34,68.102z
	 M63.273,59.13c0.641,0.995,2.738,4.392,2.738,5.994c-0.107,1.996-1.813,3.524-3.808,3.417c-1.845-0.099-3.319-1.571-3.419-3.417
	c0-1.603,2.098-4.999,2.727-5.994c0.315-0.486,0.964-0.626,1.451-0.313C63.086,58.898,63.193,59.005,63.273,59.13L63.273,59.13z
	 M54.209,68.593c0.641,0.997,2.728,4.394,2.728,5.997c-0.107,1.994-1.812,3.522-3.809,3.417c-1.845-0.101-3.318-1.571-3.42-3.417
	c0-1.604,2.099-5,2.728-5.997c0.31-0.487,0.957-0.633,1.447-0.323C54.017,68.353,54.127,68.463,54.209,68.593L54.209,68.593z
	 M2.171,72.954l5.244-13.007c0.356-0.897,1.228-1.484,2.193-1.478h23.729c0.965-0.007,1.836,0.58,2.191,1.478l5.235,13.007
	c0.487,1.208-0.099,2.582-1.309,3.069c-0.277,0.111-0.574,0.169-0.874,0.17H4.353C3.049,76.189,1.996,75.13,2,73.826
	C2,73.527,2.059,73.232,2.171,72.954L2.171,72.954z M183.436,35.296L169.515,1.8h-7.858l-14.063,33.496h8.807l2.463-6.576h12.974
	l2.602,6.576H183.436L183.436,35.296z M169.609,22.237h-8.428l4.263-11.496L169.609,22.237L169.609,22.237z M215.158,33.261V15.521
	h-13.826v6.528h6.392v6.102c-1.419,0.617-3.174,0.899-5.066,0.899c-6.581,0-10.227-4.4-10.227-10.55
	c0-6.008,4.167-10.456,9.849-10.456c3.266,0,5.967,1.324,7.527,3.123l5.112-5.82C212.127,2.65,207.251,0.9,201.996,0.9
	c-10.229,0-18.183,6.859-18.183,17.599c0,10.55,7.719,17.646,18.417,17.646C207.394,36.147,211.891,34.964,215.158,33.261
	L215.158,33.261z M253.51,35.296L239.588,1.8h-7.859l-14.062,33.496h8.806l2.463-6.576h12.973l2.605,6.576H253.51L253.51,35.296z
	 M239.683,22.237h-8.428l4.263-11.496L239.683,22.237L239.683,22.237z M281.112,35.296v-7.001h-16.667L280.78,8.282V1.8h-25.708
	v6.86h15.575l-15.955,19.634v7.001h26.42V35.296z M294.511,35.296V1.8h-8.143v33.496H294.511L294.511,35.296z M331.917,35.296V1.8
	h-7.86l0.188,21.858h-0.142L310.656,1.8h-9.23v33.496h7.859l-0.19-21.904h0.141l13.494,21.904H331.917L331.917,35.296z
	 M129.364,47.371c-2.935-2.695-7.196-4.116-10.983-4.116c-6.251,0-12.974,3.077-12.974,10.504c0,6.055,4.309,8.229,8.57,9.604
	c4.404,1.418,6.961,2.222,6.961,4.776c0,2.697-2.177,3.644-4.641,3.644c-2.651,0-5.634-1.514-7.243-3.548l-5.303,5.395
	c2.934,3.073,7.763,4.824,12.546,4.824c6.628,0,12.83-3.454,12.83-11.165c0-6.671-5.871-8.61-10.416-10.078
	c-3.171-0.992-5.16-1.703-5.16-3.926c0-2.649,2.605-3.359,4.687-3.359c2.084,0,4.594,1.136,5.967,2.885L129.364,47.371
	L129.364,47.371z M172.781,77.603V44.107h-11.693l-7.292,21.478h-0.189l-7.622-21.478h-11.507v33.495h7.623L141.912,53.9h0.141
	l8.476,23.702h5.682l8.711-23.702h0.142l-0.189,23.702H172.781L172.781,77.603z M203.085,77.603v-6.908h-15.579v-6.952h13.919
	v-6.483h-13.919v-6.291h14.726v-6.86h-22.538v33.495H203.085L203.085,77.603z M231.304,47.371
	c-2.938-2.695-7.198-4.116-10.986-4.116c-6.25,0-12.972,3.077-12.972,10.504c0,6.055,4.308,8.229,8.569,9.604
	c4.402,1.418,6.96,2.222,6.96,4.776c0,2.697-2.178,3.644-4.64,3.644c-2.652,0-5.636-1.514-7.245-3.548l-5.301,5.395
	c2.933,3.073,7.764,4.824,12.546,4.824c6.628,0,12.829-3.454,12.829-11.165c0-6.671-5.871-8.61-10.415-10.078
	c-3.174-0.992-5.16-1.703-5.16-3.926c0-2.649,2.604-3.359,4.686-3.359c2.083,0,4.594,1.136,5.965,2.885L231.304,47.371
	L231.304,47.371z M244.561,77.603V44.107h-8.145v33.495H244.561L244.561,77.603z M275.287,51.013v-6.905h-27.034v6.905h9.47v26.59
	h8.097v-26.59H275.287L275.287,51.013z M302.371,77.603v-6.908h-15.577v-6.952h13.92v-6.483h-13.92v-6.291h14.726v-6.86H278.98
	v33.495H302.371L302.371,77.603z M328.839,77.603v-7.049h-12.973V44.107h-8.145v33.495H328.839L328.839,77.603z M356.016,77.603
	v-6.908h-15.577v-6.952h13.922v-6.483h-13.922v-6.291h14.725v-6.86h-22.537v33.495H356.016L356.016,77.603z M390.531,44.107h-9.469
	l-7.148,12.396l-7.15-12.396h-9.802l12.594,19.303v14.192h8.1V63.41L390.531,44.107z"/>
</svg>
