<?xml version="1.0" encoding="utf-8"?>
<!-- Generator: Adobe Illustrator 16.0.0, SVG Export Plug-In . SVG Version: 6.00 Build 0)  -->
<!DOCTYPE svg PUBLIC "-//W3C//DTD SVG 1.1//EN" "http://www.w3.org/Graphics/SVG/1.1/DTD/svg11.dtd">
<svg version="1.1" id="Слой_1" xmlns="http://www.w3.org/2000/svg" xmlns:xlink="http://www.w3.org/1999/xlink" x="0px" y="0px"
	 width="250px" height="50px" viewBox="0 0 396.85 79.37" enable-background="new 0 0 396.85 79.37" xml:space="preserve">
<path fill="#2b5d8e" d="M107.702,35.369h7.436V18.795c0-0.875,0-2.138-0.049-3.208h0.098c0.681,1.215,1.458,2.188,2.14,3.111
	l5.929,8.166h3.257l5.201-7.874c0.534-0.826,1.846-2.722,2.138-3.403h0.048c-0.048,0.972-0.048,2.285-0.048,3.451v16.33h7.436V3.341
	h-6.755l-7.193,10.936c-0.972,1.506-1.75,2.867-2.333,4.034h-0.098c-0.728-1.264-1.506-2.431-2.478-3.791l-8.02-11.178h-6.706
	v32.028H107.702z M91.393,0.087h-4.531v77.582h4.531V0.087L91.393,0.087z M57.567,12.488l-25.444,7.182
	c-0.404,0.118-0.682,0.485-0.689,0.905v4.425H9.038v-8.012c-0.003-2.547,1.806-4.734,4.307-5.211l42.403-7.709
	c1.272-0.231,2.496,0.596,2.756,1.863l0.766,3.736C59.544,10.91,58.795,12.151,57.567,12.488L57.567,12.488z M67.043,53.899
	c0,0.595-0.482,1.077-1.077,1.077h-7.947c-0.595,0-1.076-0.482-1.076-1.077v-2.014h10.1V53.899L67.043,53.899z M68.971,49.732
	c0.593,0,1.076-0.481,1.076-1.076v-8.27c-0.006-2.447-1.988-4.43-4.437-4.438H32.318c-0.488,0-0.883-0.395-0.883-0.882v-7.913H9.038
	v29.89h22.332v-3.445l23.118-6.987v2.046c0,0.595,0.483,1.077,1.077,1.077L68.971,49.732L68.971,49.732z M71.177,69.071
	c0.366,0,0.708,0.188,0.904,0.495c0.668,1.078,2.811,4.522,2.811,6.17c-0.11,2.049-1.861,3.621-3.909,3.511
	c-1.894-0.103-3.407-1.615-3.51-3.511c0-1.646,2.154-5.136,2.8-6.158C70.468,69.266,70.809,69.073,71.177,69.071L71.177,69.071z
	 M62.897,59.854c0.657,1.022,2.811,4.512,2.811,6.16c-0.11,2.048-1.861,3.619-3.909,3.51c-1.894-0.104-3.407-1.616-3.51-3.51
	c0-1.648,2.154-5.138,2.8-6.16c0.321-0.499,0.989-0.642,1.489-0.319C62.705,59.618,62.814,59.727,62.897,59.854L62.897,59.854z
	 M53.593,69.578c0.658,1.021,2.8,4.511,2.8,6.158c-0.11,2.049-1.861,3.62-3.91,3.51c-1.894-0.103-3.407-1.616-3.509-3.51
	c0-1.647,2.153-5.137,2.8-6.158c0.317-0.505,0.983-0.652,1.485-0.334C53.395,69.329,53.509,69.443,53.593,69.578L53.593,69.578z
	 M0.175,74.058l5.384-13.363c0.366-0.921,1.259-1.524,2.251-1.518h24.355c0.991-0.007,1.886,0.597,2.25,1.518l5.373,13.363
	c0.5,1.241-0.102,2.651-1.343,3.15c-0.285,0.115-0.59,0.175-0.897,0.175H2.414C1.077,77.379-0.005,76.29,0,74.953
	C0.001,74.646,0.061,74.342,0.175,74.058L0.175,74.058z M145.708,35.369h7.631l2.916-7.63h10.401l3.062,7.63h7.971L164.419,3.195
	h-6.124L145.708,35.369L145.708,35.369z M158.344,21.81l1.605-4.375c0.827-2.188,1.264-3.548,1.507-4.618h0.096
	c0.245,1.021,0.633,2.382,1.361,4.569l1.507,4.422L158.344,21.81L158.344,21.81z M210.688,19.525h-7.436v9.478
	c-1.118,0.438-2.771,0.68-4.57,0.68c-6.365,0-9.864-4.083-9.864-10.06c0-6.173,3.693-10.45,10.982-10.45
	c3.499,0,6.417,0.923,9.089,2.188V4.508c-2.818-0.923-5.88-1.506-9.671-1.506c-11.131,0-18.323,7.339-18.323,17.01
	c0,9.04,6.22,15.844,17.399,15.844c4.472,0,8.943-0.972,12.394-2.672V19.525L210.688,19.525z M214.868,35.369h7.631l2.917-7.63
	h10.401l3.062,7.63h7.969L233.581,3.195h-6.124L214.868,35.369L214.868,35.369z M227.505,21.81l1.603-4.375
	c0.829-2.188,1.266-3.548,1.508-4.618h0.098c0.242,1.021,0.633,2.382,1.361,4.569l1.507,4.422L227.505,21.81L227.505,21.81z
	 M248.111,35.369h27.267V29.1h-15.066l15.356-25.759h-26.438l1.846,6.27h12.783L248.111,35.369L248.111,35.369z M280.48,35.369
	h7.436V3.341h-7.436V35.369L280.48,35.369z M326.069,35.369V3.341h-7.437v14.824c0,1.263,0,3.595,0.098,5.248h-0.098
	c-0.923-1.36-1.847-2.576-2.867-3.888L303.324,3.34h-7.438v32.029h7.438V19.087c0-1.361,0-3.5-0.146-4.568h0.098
	c1.069,1.409,1.992,2.673,3.015,3.984l12.879,16.865L326.069,35.369L326.069,35.369z M106.244,75.205
	c2.771,1.991,6.707,3.013,10.498,3.013c6.854,0,12.199-3.694,12.199-9.623c0-10.304-13.608-9.526-13.608-14.483
	c0-1.944,1.556-2.576,3.353-2.576c2.625,0,5.25,0.777,8.214,2.236v-6.659c-1.943-0.972-4.908-1.749-8.457-1.749
	c-7.097,0-11.031,4.471-11.031,9.379c0,9.867,13.608,9.187,13.608,14.482c0,2.091-2.381,2.821-4.57,2.821
	c-2.818,0-5.25-0.974-7.387-2.431L106.244,75.205L106.244,75.205z M135.696,77.731h7.437V61.156c0-0.872,0-2.138-0.049-3.206h0.097
	c0.68,1.214,1.458,2.187,2.138,3.109l5.93,8.165h3.256l5.201-7.873c0.535-0.825,1.847-2.721,2.138-3.401h0.049
	c-0.049,0.973-0.049,2.284-0.049,3.45v16.331h7.437V45.703h-6.755l-7.193,10.935c-0.971,1.507-1.75,2.868-2.333,4.035h-0.097
	c-0.729-1.265-1.507-2.431-2.479-3.792l-8.019-11.178h-6.708v32.028H135.696z M177.251,77.731H196.4v-6.269h-11.713v-6.756h10.061
	v-6.271h-10.061v-6.464h9.915l1.895-6.27h-19.248v32.028H177.251z M202.037,75.205c2.771,1.991,6.707,3.013,10.499,3.013
	c6.853,0,12.199-3.694,12.199-9.623c0-10.304-13.609-9.526-13.609-14.483c0-1.944,1.555-2.576,3.354-2.576
	c2.625,0,5.248,0.777,8.214,2.236v-6.659c-1.943-0.972-4.909-1.749-8.458-1.749c-7.095,0-11.032,4.471-11.032,9.379
	c0,9.867,13.609,9.187,13.609,14.482c0,2.091-2.383,2.821-4.569,2.821c-2.818,0-5.249-0.974-7.388-2.431L202.037,75.205
	L202.037,75.205z M231.491,77.731h7.435V45.703h-7.435V77.731L231.491,77.731z M253.117,77.731h7.438V51.973h8.212l1.896-6.27
	h-26.925v6.27h9.38V77.731L253.117,77.731z M274.988,77.731h19.15v-6.269h-11.714v-6.756h10.061v-6.271h-10.061v-6.464h9.915
	l1.895-6.27h-19.246V77.731L274.988,77.731z M301.234,77.731h18.421v-6.269h-10.984v-25.76h-7.437V77.731L301.234,77.731z
	 M324.708,77.731h19.148v-6.269h-11.712v-6.756h10.061v-6.271h-10.061v-6.464h9.915l1.895-6.27h-19.246V77.731L324.708,77.731z
	 M358.584,77.731h7.436v-12.54l11.324-19.488h-7.971l-6.951,13.073h-0.098l-6.9-13.073h-8.019l11.179,19.393V77.731L358.584,77.731z
	"/>
</svg>
