<?xml version="1.0" encoding="utf-8"?>
<!-- Generator: Adobe Illustrator 16.0.0, SVG Export Plug-In . SVG Version: 6.00 Build 0)  -->
<!DOCTYPE svg PUBLIC "-//W3C//DTD SVG 1.1//EN" "http://www.w3.org/Graphics/SVG/1.1/DTD/svg11.dtd">
<svg version="1.1" id="_x31_" xmlns="http://www.w3.org/2000/svg" xmlns:xlink="http://www.w3.org/1999/xlink" x="0px" y="0px"
	 width="907px" height="638px" viewBox="0 0 907 638" enable-background="new 0 0 907 638" xml:space="preserve">
<path fill-rule="evenodd" clip-rule="evenodd" fill="#304093" d="M345.572,313.368h9.916v-22.1c0-1.167,0-2.852-0.065-4.277h0.13
	c0.907,1.62,1.944,2.917,2.852,4.148l7.907,10.888h4.342l6.935-10.499c0.713-1.102,2.462-3.629,2.852-4.537h0.064
	c-0.064,1.296-0.064,3.046-0.064,4.602v21.775h9.916v-42.709h-9.008l-9.592,14.582c-1.296,2.009-2.333,3.824-3.111,5.379h-0.129
	c-0.972-1.685-2.009-3.241-3.305-5.055l-10.694-14.906h-8.943V313.368L345.572,313.368z M323.825,266.321h-6.042v103.452h6.042
	V266.321L323.825,266.321z M278.719,282.856l-33.929,9.577c-0.538,0.157-0.91,0.646-0.919,1.206v5.901h-29.865v-10.683
	c-0.004-3.396,2.408-6.314,5.744-6.949l56.542-10.28c1.697-0.309,3.329,0.794,3.676,2.484l1.02,4.982
	C281.354,280.753,280.356,282.407,278.719,282.856L278.719,282.856z M291.354,338.078c0,0.793-0.643,1.436-1.436,1.436h-10.596
	c-0.793,0-1.436-0.643-1.436-1.436v-2.685h13.468V338.078L291.354,338.078z M293.924,332.521c0.793,0,1.436-0.643,1.436-1.436
	v-11.027c-0.008-3.263-2.652-5.907-5.916-5.916h-44.395c-0.65,0-1.177-0.527-1.177-1.177v-10.553h-29.866v39.858h29.779v-4.594
	l30.827-9.318v2.728c0,0.793,0.643,1.436,1.436,1.436H293.924L293.924,332.521z M296.867,358.309
	c0.488,0.001,0.943,0.25,1.206,0.661c0.89,1.436,3.748,6.03,3.748,8.227c-0.147,2.732-2.481,4.827-5.213,4.681
	c-2.526-0.137-4.543-2.154-4.68-4.681c0-2.196,2.872-6.849,3.733-8.213C295.921,358.567,296.376,358.313,296.867,358.309
	L296.867,358.309z M285.826,346.019c0.876,1.364,3.748,6.016,3.748,8.213c-0.147,2.731-2.481,4.827-5.213,4.68
	c-2.526-0.136-4.543-2.153-4.68-4.68c0-2.197,2.872-6.849,3.733-8.213c0.43-0.666,1.319-0.857,1.985-0.427
	C285.57,345.702,285.715,345.848,285.826,346.019L285.826,346.019z M273.42,358.983c0.876,1.364,3.733,6.017,3.733,8.213
	c-0.147,2.732-2.481,4.827-5.213,4.681c-2.526-0.137-4.543-2.154-4.68-4.681c0-2.196,2.872-6.849,3.733-8.213
	c0.424-0.67,1.311-0.869,1.981-0.445C273.155,358.652,273.307,358.805,273.42,358.983L273.42,358.983z M202.189,364.957
	l7.179-17.818c0.487-1.229,1.679-2.034,3.001-2.024h32.478c1.322-0.01,2.515,0.795,3,2.024l7.165,17.818
	c0.667,1.655-0.135,3.537-1.791,4.203c-0.38,0.153-0.786,0.232-1.196,0.233h-46.851c-1.784-0.006-3.226-1.457-3.22-3.241
	C201.957,365.743,202.036,365.337,202.189,364.957L202.189,364.957z M396.252,313.368h10.175l3.889-10.175h13.869l4.083,10.175
	h10.628l-17.693-42.903h-8.166L396.252,313.368L396.252,313.368z M413.103,295.287l2.139-5.833c1.102-2.917,1.685-4.731,2.009-6.157
	h0.129c0.324,1.361,0.843,3.176,1.815,6.092l2.009,5.897H413.103L413.103,295.287z M482.901,292.241h-9.915v12.638
	c-1.491,0.583-3.694,0.907-6.093,0.907c-8.489,0-13.155-5.444-13.155-13.415c0-8.231,4.925-13.934,14.646-13.934
	c4.666,0,8.555,1.231,12.119,2.917v-9.138c-3.759-1.231-7.842-2.009-12.897-2.009c-14.841,0-24.432,9.786-24.432,22.683
	c0,12.054,8.295,21.127,23.201,21.127c5.963,0,11.926-1.296,16.526-3.564V292.241L482.901,292.241z M488.476,313.368h10.175
	l3.889-10.175h13.869l4.083,10.175h10.628l-17.692-42.903h-8.166L488.476,313.368L488.476,313.368z M505.325,295.287l2.139-5.833
	c1.103-2.917,1.686-4.731,2.01-6.157h0.129c0.324,1.361,0.843,3.176,1.815,6.092l2.009,5.897H505.325L505.325,295.287z
	 M532.805,313.368h36.357v-8.36h-20.091l20.479-34.349h-35.256l2.463,8.361h17.045L532.805,313.368L532.805,313.368z
	 M575.967,313.368h9.916v-42.709h-9.916V313.368L575.967,313.368z M636.758,313.368v-42.709h-9.916v19.767
	c0,1.685,0,4.795,0.13,6.999h-0.13c-1.231-1.814-2.462-3.435-3.823-5.185l-16.591-21.582h-9.916v42.709h9.916v-21.71
	c0-1.815,0-4.667-0.195-6.092h0.13c1.426,1.879,2.657,3.564,4.019,5.314l17.174,22.488H636.758L636.758,313.368z M343.627,366.487
	c3.694,2.657,8.943,4.018,13.999,4.018c9.138,0,16.267-4.926,16.267-12.832c0-13.739-18.146-12.702-18.146-19.313
	c0-2.592,2.074-3.435,4.472-3.435c3.5,0,6.999,1.037,10.953,2.981v-8.879c-2.593-1.296-6.546-2.333-11.277-2.333
	c-9.462,0-14.711,5.963-14.711,12.508c0,13.156,18.146,12.249,18.146,19.313c0,2.787-3.175,3.759-6.092,3.759
	c-3.759,0-7-1.296-9.851-3.24L343.627,366.487L343.627,366.487z M382.901,369.857h9.916v-22.101c0-1.166,0-2.852-0.065-4.277h0.13
	c0.907,1.62,1.944,2.917,2.851,4.148l7.907,10.888h4.342l6.935-10.499c0.713-1.102,2.463-3.63,2.852-4.537h0.065
	c-0.065,1.297-0.065,3.047-0.065,4.602v21.776h9.916v-42.71h-9.008l-9.592,14.582c-1.296,2.01-2.333,3.824-3.11,5.38h-0.13
	c-0.972-1.686-2.009-3.24-3.305-5.056l-10.693-14.906h-8.944V369.857L382.901,369.857z M438.313,369.857h25.535v-8.36h-15.619
	v-9.009h13.416v-8.36h-13.416v-8.619h13.221l2.527-8.361h-25.665V369.857L438.313,369.857z M471.365,366.487
	c3.694,2.657,8.944,4.018,13.999,4.018c9.139,0,16.268-4.926,16.268-12.832c0-13.739-18.147-12.702-18.147-19.313
	c0-2.592,2.074-3.435,4.473-3.435c3.499,0,6.999,1.037,10.952,2.981v-8.879c-2.592-1.296-6.545-2.333-11.276-2.333
	c-9.462,0-14.712,5.963-14.712,12.508c0,13.156,18.146,12.249,18.146,19.313c0,2.787-3.176,3.759-6.092,3.759
	c-3.759,0-6.999-1.296-9.851-3.24L471.365,366.487L471.365,366.487z M510.64,369.857h9.916v-42.71h-9.916V369.857L510.64,369.857z
	 M539.479,369.857h9.916v-34.349h10.952l2.528-8.361h-35.904v8.361h12.508V369.857L539.479,369.857z M568.644,369.857h25.535v-8.36
	H578.56v-9.009h13.415v-8.36H578.56v-8.619h13.221l2.527-8.361h-25.664V369.857L568.644,369.857z M603.641,369.857h24.563v-8.36
	h-14.646v-34.35h-9.916V369.857L603.641,369.857z M634.943,369.857h25.534v-8.36h-15.618v-9.009h13.415v-8.36h-13.415v-8.619h13.221
	l2.527-8.361h-25.664V369.857L634.943,369.857z M680.115,369.857h9.915v-16.721l15.101-25.989h-10.629l-9.268,17.435h-0.129
	l-9.203-17.435h-10.693l14.906,25.859V369.857z"/>
</svg>
