<?xml version="1.0" encoding="UTF-8"?>
<!DOCTYPE svg PUBLIC "-//W3C//DTD SVG 1.1//EN" "http://www.w3.org/Graphics/SVG/1.1/DTD/svg11.dtd">
<!-- Creator: CorelDRAW 2020 (64-Bit) -->
<svg xmlns="http://www.w3.org/2000/svg" xml:space="preserve" width="105.048mm" height="21.0231mm" version="1.1" shape-rendering="geometricPrecision" text-rendering="geometricPrecision" image-rendering="optimizeQuality" fill-rule="evenodd" clip-rule="evenodd"
viewBox="0 0 7707.56 1542.5"
 xmlns:xlink="http://www.w3.org/1999/xlink"
 xmlns:xodm="http://www.corel.com/coreldraw/odm/2003">
 <g id="Слой_x0020_1">
  <metadata id="CorelCorpID_0Corel-Layer"/>
  <path fill="#4B548F" fill-rule="nonzero" d="M2110.85 687.46l151.51 0 0 -419.52 183.72 255.69 21.78 0 184.66 -258.53 0 422.36 151.52 0 0 -662.9 -143 0 -193.18 279.36 -204.55 -279.36 -152.46 0 0 662.9zm787.9 0l152.47 0 54.92 -139.21 262.32 0 54.93 139.21 161.93 0 -275.57 -662.9 -135.41 0 -275.58 662.9zm339.02 -468.77l73.86 187.51 -148.68 0 74.82 -187.51zm692.26 232.96l141.1 0 0 71.97c-15.16,14.2 -64.4,33.15 -104.17,33.15 -118.38,0 -196.03,-78.6 -196.03,-200.77 0,-136.37 84.28,-200.76 193.19,-200.76 51.13,0 108.91,20.83 135.41,49.24l63.45 -122.16c-53.98,-42.62 -118.37,-69.13 -216.86,-69.13 -208.34,0 -336.18,152.46 -336.18,342.81 0,206.45 127.84,342.81 355.13,342.81 82.39,0 189.39,-35.04 248.11,-93.75l0 -295.46 -283.14 0 0 142.05zm339.97 235.8l152.47 0 54.92 -139.21 262.32 0 54.93 139.21 161.93 0 -275.57 -662.9 -135.42 0 -275.57 662.9zm339.02 -468.77l73.86 187.51 -148.68 0 74.82 -187.51zm396.79 -52.08l308.72 0 -327.66 414.78 0 106.07 539.79 0 0 -142.06 -338.08 0 328.6 -414.78 0 -106.07 -511.37 0 0 142.06zm662.89 520.84l151.51 0 0 -662.9 -151.51 0 0 662.9zm918.58 0l0 -662.9 -142.05 0 0 399.63 -314.41 -399.63 -121.21 0 0 662.9 142.04 0 0 -397.74 314.41 397.74 121.22 0zm-4233.05 641.74c0,31.25 -22.73,51.13 -62.51,51.13 -46.4,0 -104.17,-21.78 -142.05,-70.08l-86.18 103.23c32.2,71.02 135.41,108.91 224.44,108.91 127.84,0 227.28,-79.55 227.28,-195.08 0,-215.92 -276.52,-189.4 -276.52,-299.25 0,-30.3 24.62,-49.25 66.28,-49.25 49.25,0 71.02,17.05 100.38,44.51l81.44 -113.64c-41.66,-44.51 -109.85,-72.92 -195.08,-72.92 -132.58,0 -214.02,89.01 -214.02,191.29 0,214.03 276.52,201.71 276.52,301.15zm293.57 181.82l151.52 0 0 -419.53 183.72 255.69 21.78 0 184.67 -258.53 0 422.36 151.51 0 0 -662.9 -142.99 0 -193.19 279.36 -204.55 -279.36 -152.46 0 0 662.9zm873.12 0l402.47 0 0 -142.06 -250.95 0 0 -120.26 213.07 0 0 -142.05 -213.07 0 0 -116.49 241.48 0 0 -142.05 -393 0 0 662.9zm797.37 -181.82c0,31.25 -22.73,51.13 -62.51,51.13 -46.4,0 -104.17,-21.78 -142.05,-70.08l-86.18 103.23c32.2,71.02 135.42,108.91 224.44,108.91 127.84,0 227.28,-79.55 227.28,-195.08 0,-215.92 -276.52,-189.4 -276.52,-299.25 0,-30.3 24.62,-49.25 66.28,-49.25 49.25,0 71.02,17.05 100.38,44.51l81.44 -113.64c-41.66,-44.51 -109.85,-72.92 -195.08,-72.92 -132.58,0 -214.02,89.01 -214.02,191.29 0,214.03 276.52,201.71 276.52,301.15zm303.03 181.82l151.52 0 0 -662.9 -151.52 0 0 662.9zm265.16 -520.85l198.87 0 0 520.85 151.52 0 0 -520.85 198.87 0 0 -142.05 -549.25 0 0 142.05zm653.43 520.85l402.47 0 0 -142.06 -250.95 0 0 -120.26 213.07 0 0 -142.05 -213.07 0 0 -116.49 241.48 0 0 -142.05 -393 0 0 662.9zm553.99 0l421.41 0 0 -142.06 -269.89 0 0 -520.84 -151.52 0 0 662.9zm525.58 0l402.47 0 0 -142.06 -250.95 0 0 -120.26 213.08 0 0 -142.05 -213.08 0 0 -116.49 241.49 0 0 -142.05 -393 0 0 662.9zm1088.09 -662.9l-163.83 0 -140.15 250.96 -142.05 -250.96 -173.3 0 232.96 393 0 269.9 151.52 0 0 -269.9 234.86 -393z"/>
  <path fill="#4B548F" fill-rule="nonzero" d="M1121.66 241.62l-495.76 139.94c-7.86,2.3 -13.3,9.44 -13.43,17.62l0 86.23 -436.39 0 0 -156.09c-0.07,-49.62 35.18,-92.27 83.92,-101.55l826.2 -150.21c24.79,-4.51 48.65,11.61 53.71,36.29l14.89 72.81c5.36,24.22 -9.22,48.4 -33.15,54.96zm184.63 806.91c0,11.59 -9.4,20.98 -20.98,20.98l-154.83 0c-11.59,0 -20.98,-9.4 -20.98,-20.98l0 -39.23 196.8 0 0 39.23zm37.55 -81.19l-261.2 0c-11.59,0 -20.98,-9.4 -20.98,-20.98l0 -39.86 -450.44 136.16 0 67.14 -435.13 0 0 -582.42 436.39 0 0 154.21c0,9.5 7.7,17.21 17.2,17.21l648.72 0c47.69,0.12 86.32,38.75 86.44,86.44l0 161.12c0,11.59 -9.4,20.98 -20.98,20.98zm43.01 376.81c7.13,0.01 13.77,3.65 17.62,9.65 13.01,20.98 54.76,88.12 54.76,120.22 -2.15,39.91 -36.25,70.53 -76.17,68.38 -36.91,-1.99 -66.39,-31.47 -68.38,-68.38 0,-32.1 41.96,-100.08 54.55,-120.01 3.8,-6.08 10.45,-9.8 17.62,-9.86zm-161.34 -179.59c12.8,19.93 54.76,87.91 54.76,120.01 -2.15,39.91 -36.25,70.53 -76.17,68.38 -36.91,-1.99 -66.39,-31.47 -68.38,-68.38 0,-32.1 41.96,-100.08 54.55,-120.01 6.29,-9.74 19.27,-12.52 29,-6.24 2.5,1.62 4.63,3.74 6.24,6.24zm-181.27 189.45c12.8,19.93 54.55,87.91 54.55,120.01 -2.15,39.91 -36.26,70.53 -76.17,68.38 -36.91,-1.99 -66.39,-31.47 -68.38,-68.38 0,-32.1 41.96,-100.08 54.54,-120.01 6.2,-9.8 19.16,-12.71 28.95,-6.51 2.63,1.66 4.84,3.88 6.51,6.51zm-1040.83 87.28l104.9 -260.37c7.1,-17.97 24.53,-29.72 43.85,-29.58l474.58 0c19.33,-0.14 36.74,11.61 43.85,29.58l104.69 260.37c9.74,24.19 -1.98,51.68 -26.17,61.42 -5.55,2.24 -11.48,3.39 -17.47,3.41l-684.58 0c-26.08,-0.08 -47.14,-21.29 -47.05,-47.36 0.01,-5.99 1.17,-11.92 3.41,-17.47z"/>
  <polygon fill="#4B548F" points="1780.76,0 1692.47,0 1692.47,1511.64 1780.76,1511.64 "/>
 </g>
</svg>
