<?xml version="1.0" encoding="UTF-8"?>
<!DOCTYPE svg PUBLIC "-//W3C//DTD SVG 1.1//EN" "http://www.w3.org/Graphics/SVG/1.1/DTD/svg11.dtd">
<!-- Creator: CorelDRAW 2020 (64-Bit) -->
<?xml-stylesheet href="imin-logo.css" type="text/css"?>
<svg xmlns="http://www.w3.org/2000/svg" xml:space="preserve" width="1020px" height="240px" version="1.1" style="shape-rendering:geometricPrecision; text-rendering:geometricPrecision; image-rendering:optimizeQuality; fill-rule:evenodd; clip-rule:evenodd"
viewBox="0 0 1020 240"
 xmlns:xlink="http://www.w3.org/1999/xlink"
 xmlns:xodm="http://www.corel.com/coreldraw/odm/2003">
 <g id="Слой_x0020_1">
  <metadata id="CorelCorpID_0Corel-Layer"/>
  <g id="_1230082832">
   <polygon class="fil0" points="66.29,65.99 146.76,205.55 203.26,206 229.42,161.91 151.74,22.45 92.25,21.88 " fill="#FFC90D"/>
   <polygon class="fil1" points="174,62.99 254,205 311,206 337.13,158.91 259.46,19.45 199.96,18.88 " fill="#D4001C"/>
   <polygon class="fil2" points="10,159.79 37.32,205.75 94.42,206 119.96,159.86 92.38,111.25 36.87,111.03 " fill="#004AAD"/>
  </g>
  <path class="fil3" fill="#2B2A29" fill-rule="nonzero" d="M389.22 189.1c-4.16,0 -7.34,-1.16 -9.54,-3.48 -2.2,-2.33 -3.3,-5.57 -3.3,-9.72l0 -106.15c0,-4.28 1.16,-7.55 3.49,-9.81 2.32,-2.26 5.62,-3.39 9.9,-3.39 3.66,0 6.57,0.73 8.7,2.2 2.14,1.47 4.13,3.85 5.96,7.15l39.24 71.68 39.23 -71.68c1.83,-3.3 3.82,-5.68 5.96,-7.15 2.14,-1.47 4.98,-2.2 8.52,-2.2 4.16,0 7.37,1.13 9.63,3.39 2.26,2.26 3.39,5.53 3.39,9.81l0 106.15c0,8.8 -4.28,13.2 -12.83,13.2 -8.68,0 -13.02,-4.4 -13.02,-13.2l0 -67.28 -30.07 54.08c-1.46,2.32 -3.02,4.06 -4.67,5.22 -1.65,1.16 -3.82,1.74 -6.51,1.74 -2.69,0 -4.89,-0.58 -6.6,-1.74 -1.71,-1.16 -3.24,-2.9 -4.58,-5.22l-30.07 -53.54 0 66.74c0,8.8 -4.28,13.2 -12.83,13.2z"/>
  <path id="1" class="fil3" d="M548.17 80.93c-5.14,0 -9.08,-1.19 -11.83,-3.57 -2.75,-2.39 -4.12,-5.78 -4.12,-10.18 0,-4.52 1.37,-7.97 4.12,-10.36 2.75,-2.38 6.69,-3.57 11.83,-3.57 10.51,0 15.76,4.64 15.76,13.93 0,9.17 -5.25,13.75 -15.76,13.75zm0 107.99c-4.53,0 -7.98,-1.32 -10.36,-3.95 -2.39,-2.62 -3.58,-6.32 -3.58,-11.09l0 -62.7c0,-10.14 4.65,-15.22 13.94,-15.22 4.4,0 7.79,1.32 10.17,3.95 2.38,2.62 3.58,6.38 3.58,11.27l0 62.7c0,4.77 -1.17,8.47 -3.49,11.09 -2.32,2.63 -5.74,3.95 -10.26,3.95z"/>
  <path id="2" class="fil3" d="M597.67 189.1c-9.54,0 -14.3,-4.71 -14.3,-14.12l0 -65.08c0,-9.29 4.52,-13.94 13.56,-13.94 9.05,0 13.57,4.65 13.57,13.94l0 3.3c4.4,-10.88 13.5,-16.75 27.32,-17.6 3.05,-0.25 5.4,0.52 7.05,2.29 1.65,1.77 2.54,4.67 2.66,8.71 0.25,3.79 -0.52,6.78 -2.29,8.98 -1.77,2.2 -4.74,3.55 -8.89,4.04l-4.22 0.36c-13.69,1.35 -20.53,8.31 -20.53,20.9l0 34.1c0,9.41 -4.65,14.12 -13.93,14.12z"/>
  <path id="3" class="fil3" d="M701.07 189.46c-9.78,0 -18.31,-1.92 -25.58,-5.77 -7.27,-3.85 -12.86,-9.32 -16.77,-16.41 -3.92,-7.09 -5.87,-15.46 -5.87,-25.12 0,-9.65 1.95,-17.96 5.87,-24.93 3.91,-6.96 9.5,-12.31 16.77,-16.04 7.27,-3.73 15.8,-5.59 25.58,-5.59 3.78,0 7.85,0.46 12.19,1.37 4.34,0.92 8.52,2.48 12.56,4.68 3.05,1.47 4.95,3.51 5.68,6.14 0.73,2.63 0.58,5.23 -0.46,7.79 -1.04,2.57 -2.69,4.43 -4.95,5.59 -2.26,1.16 -4.92,0.95 -7.97,-0.64 -4.89,-2.56 -9.66,-3.85 -14.31,-3.85 -7.21,0 -12.8,2.23 -16.77,6.69 -3.97,4.46 -5.96,10.79 -5.96,18.98 0,8.06 1.99,14.39 5.96,18.97 3.97,4.59 9.56,6.88 16.77,6.88 2.21,0 4.53,-0.28 6.97,-0.83 2.45,-0.55 4.89,-1.49 7.34,-2.84 3.05,-1.59 5.71,-1.77 7.97,-0.55 2.26,1.22 3.82,3.09 4.68,5.59 0.85,2.51 0.91,5.11 0.18,7.8 -0.74,2.68 -2.57,4.76 -5.5,6.23 -4.16,2.08 -8.31,3.57 -12.47,4.49 -4.15,0.92 -8.13,1.37 -11.91,1.37z"/>
  <path id="4" class="fil3" d="M774.95 189.46c-6.72,0 -12.65,-1.28 -17.78,-3.84 -5.14,-2.57 -9.2,-6.06 -12.2,-10.46 -2.99,-4.39 -4.49,-9.34 -4.49,-14.85 0,-6.47 1.71,-11.67 5.14,-15.58 3.42,-3.91 8.98,-6.69 16.68,-8.34 7.7,-1.65 17.9,-2.48 30.61,-2.48l6.6 0 0 -3.11c0,-5.38 -1.22,-9.2 -3.66,-11.46 -2.45,-2.26 -6.6,-3.39 -12.47,-3.39 -3.3,0 -6.9,0.4 -10.81,1.19 -3.92,0.79 -8.13,2.11 -12.65,3.94 -3.43,1.47 -6.3,1.56 -8.62,0.28 -2.32,-1.29 -3.85,-3.24 -4.58,-5.87 -0.74,-2.63 -0.52,-5.29 0.64,-7.98 1.16,-2.68 3.45,-4.64 6.87,-5.86 5.75,-2.2 11.15,-3.76 16.23,-4.68 5.07,-0.91 9.74,-1.37 14.02,-1.37 13.94,0 24.32,3.15 31.17,9.44 6.84,6.29 10.26,16.04 10.26,29.24l0 40.7c0,9.41 -4.27,14.12 -12.83,14.12 -8.68,0 -13.01,-4.71 -13.01,-14.12l0 -1.1c-1.84,4.77 -4.92,8.56 -9.26,11.37 -4.34,2.81 -9.63,4.21 -15.86,4.21zm6.23 -18.51c5.13,0 9.47,-1.77 13.02,-5.32 3.54,-3.54 5.31,-8.13 5.31,-13.75l0 -3.67 -6.41 0c-9.41,0 -16.07,0.83 -19.98,2.48 -3.92,1.65 -5.87,4.49 -5.87,8.53 0,3.42 1.19,6.23 3.57,8.43 2.39,2.2 5.84,3.3 10.36,3.3z"/>
  <path id="5" class="fil3" d="M860.93 189.1c-9.53,0 -14.3,-4.71 -14.3,-14.12l0 -65.08c0,-9.29 4.53,-13.94 13.57,-13.94 9.04,0 13.57,4.65 13.57,13.94l0 3.3c4.4,-10.88 13.5,-16.75 27.31,-17.6 3.06,-0.25 5.41,0.52 7.06,2.29 1.65,1.77 2.54,4.67 2.66,8.71 0.24,3.79 -0.52,6.78 -2.29,8.98 -1.77,2.2 -4.74,3.55 -8.89,4.04l-4.22 0.36c-13.69,1.35 -20.53,8.31 -20.53,20.9l0 34.1c0,9.41 -4.65,14.12 -13.94,14.12z"/>
  <path id="6" class="fil3" d="M967.26 189.46c-10.63,0 -19.76,-1.92 -27.4,-5.77 -7.64,-3.85 -13.51,-9.29 -17.6,-16.32 -4.1,-7.02 -6.14,-15.31 -6.14,-24.84 0,-9.29 1.98,-17.45 5.95,-24.47 3.98,-7.03 9.41,-12.53 16.32,-16.5 6.91,-3.98 14.88,-5.96 23.92,-5.96 13.08,0 23.47,4.12 31.17,12.37 7.7,8.25 11.55,19.41 11.55,33.46 0,4.65 -2.87,6.97 -8.61,6.97l-53.9 0c0.97,7.09 3.57,12.25 7.79,15.49 4.21,3.24 10.05,4.86 17.51,4.86 2.93,0 6.26,-0.34 9.99,-1.01 3.72,-0.67 7.3,-1.86 10.72,-3.57 3.55,-1.72 6.54,-2.05 8.99,-1.01 2.44,1.04 4.12,2.78 5.04,5.22 0.91,2.45 0.91,4.98 0,7.61 -0.92,2.63 -2.97,4.8 -6.14,6.51 -4.28,2.32 -9.02,4.06 -14.21,5.22 -5.2,1.16 -10.18,1.74 -14.95,1.74zm-3.84 -75.53c-5.87,0 -10.61,1.77 -14.21,5.32 -3.61,3.54 -5.84,8.49 -6.69,14.85l39.59 0c-0.73,-13.45 -6.96,-20.17 -18.69,-20.17z"/>
 </g>
</svg>
